<?xml version="1.0" encoding="UTF-8" standalone="no"?>
<!DOCTYPE svg PUBLIC "-//W3C//DTD SVG 1.1//EN" "http://www.w3.org/Graphics/SVG/1.1/DTD/svg11.dtd">
<svg width="100%" height="100%" viewBox="0 0 256 256" version="1.1" xmlns="http://www.w3.org/2000/svg" xmlns:xlink="http://www.w3.org/1999/xlink" xml:space="preserve" xmlns:serif="http://www.serif.com/" style="fill-rule:evenodd;clip-rule:evenodd;stroke-linejoin:round;stroke-miterlimit:2;">
    <g transform="matrix(1.14895,0,0,1.06043,-18.7511,-7.73363)">
        <path d="M147.731,54.336C147.731,48.884 145.732,43.655 142.174,39.8C138.616,35.944 133.79,33.778 128.758,33.778C126.857,33.778 124.927,33.778 123.027,33.778C117.995,33.778 113.169,35.944 109.61,39.8C106.052,43.655 104.053,48.884 104.053,54.336C104.053,90.571 104.053,165.394 104.053,201.629C104.053,207.081 106.052,212.31 109.61,216.166C113.169,220.021 117.995,222.187 123.027,222.187C124.927,222.187 126.857,222.187 128.758,222.187C133.79,222.187 138.616,220.021 142.174,216.166C145.732,212.31 147.731,207.081 147.731,201.629C147.731,165.394 147.731,90.571 147.731,54.336Z" style="fill:rgb(0,114,235);"/>
    </g>
    <g transform="matrix(7.03526e-17,-1.14895,1.06043,6.49324e-17,-9.82395,272.626)">
        <path d="M147.731,54.336C147.731,48.884 145.732,43.655 142.174,39.8C138.616,35.944 133.79,33.778 128.758,33.778C126.857,33.778 124.927,33.778 123.027,33.778C117.995,33.778 113.169,35.944 109.61,39.8C106.052,43.655 104.053,48.884 104.053,54.336C104.053,90.571 104.053,165.394 104.053,201.629C104.053,207.081 106.052,212.31 109.61,216.166C113.169,220.021 117.995,222.187 123.027,222.187C124.927,222.187 126.857,222.187 128.758,222.187C133.79,222.187 138.616,220.021 142.174,216.166C145.732,212.31 147.731,207.081 147.731,201.629C147.731,165.394 147.731,90.571 147.731,54.336Z" style="fill:rgb(0,114,235);"/>
    </g>
</svg>
