<?xml version="1.0" encoding="UTF-8" standalone="no"?>
<!DOCTYPE svg PUBLIC "-//W3C//DTD SVG 1.1//EN" "http://www.w3.org/Graphics/SVG/1.1/DTD/svg11.dtd">
<svg width="100%" height="100%" viewBox="0 0 100 100" version="1.1" xmlns="http://www.w3.org/2000/svg" xmlns:xlink="http://www.w3.org/1999/xlink" xml:space="preserve" xmlns:serif="http://www.serif.com/" style="fill-rule:evenodd;clip-rule:evenodd;stroke-linejoin:round;stroke-miterlimit:2;">
    <g transform="matrix(1.41626,0,0,1,-12.9849,-5.35197)">
        <path d="M52.287,20.797C52.287,17.743 50.536,15.263 48.38,15.263L40.565,15.263C38.409,15.263 36.658,17.743 36.658,20.797L36.658,89.907C36.658,92.961 38.409,95.441 40.565,95.441L48.38,95.441C50.536,95.441 52.287,92.961 52.287,89.907L52.287,20.797Z" style="fill:rgb(44,194,79);"/>
    </g>
    <g transform="matrix(8.67209e-17,-1.41626,1,6.12323e-17,-5.35197,112.985)">
        <path d="M52.287,20.797C52.287,17.743 50.536,15.263 48.38,15.263L40.565,15.263C38.409,15.263 36.658,17.743 36.658,20.797L36.658,89.907C36.658,92.961 38.409,95.441 40.565,95.441L48.38,95.441C50.536,95.441 52.287,92.961 52.287,89.907L52.287,20.797Z" style="fill:rgb(44,194,79);"/>
    </g>
</svg>
