<?xml version="1.0" encoding="UTF-8" standalone="no"?>
<!DOCTYPE svg PUBLIC "-//W3C//DTD SVG 1.1//EN" "http://www.w3.org/Graphics/SVG/1.1/DTD/svg11.dtd">
<svg width="100%" height="100%" viewBox="0 0 100 100" version="1.1" xmlns="http://www.w3.org/2000/svg" xmlns:xlink="http://www.w3.org/1999/xlink" xml:space="preserve" xmlns:serif="http://www.serif.com/" style="fill-rule:evenodd;clip-rule:evenodd;stroke-linejoin:round;stroke-miterlimit:2;">
    <g transform="matrix(1.00145,-1.00145,0.707107,0.707107,-33.6768,55.3973)">
        <path d="M52.287,20.797C52.287,17.743 50.536,15.263 48.38,15.263L40.565,15.263C38.409,15.263 36.658,17.743 36.658,20.797L36.658,89.907C36.658,92.961 38.409,95.441 40.565,95.441L48.38,95.441C50.536,95.441 52.287,92.961 52.287,89.907L52.287,20.797Z" style="fill:rgb(186,0,27);"/>
    </g>
    <g transform="matrix(-1.00145,-1.00145,0.707107,-0.707107,55.3973,133.677)">
        <path d="M52.287,20.797C52.287,17.743 50.536,15.263 48.38,15.263L40.565,15.263C38.409,15.263 36.658,17.743 36.658,20.797L36.658,89.907C36.658,92.961 38.409,95.441 40.565,95.441L48.38,95.441C50.536,95.441 52.287,92.961 52.287,89.907L52.287,20.797Z" style="fill:rgb(186,0,27);"/>
    </g>
</svg>
