<?xml version="1.0" encoding="UTF-8" standalone="no"?>
<!DOCTYPE svg PUBLIC "-//W3C//DTD SVG 1.1//EN" "http://www.w3.org/Graphics/SVG/1.1/DTD/svg11.dtd">
<svg width="100%" height="100%" viewBox="0 0 100 100" version="1.1" xmlns="http://www.w3.org/2000/svg" xmlns:xlink="http://www.w3.org/1999/xlink" xml:space="preserve" xmlns:serif="http://www.serif.com/" style="fill-rule:evenodd;clip-rule:evenodd;stroke-linecap:round;stroke-linejoin:round;stroke-miterlimit:1.5;">
    <g transform="matrix(1,0,0,1,-3.37075,0)">
        <path d="M37.929,35.356L67.948,65.375" style="fill:none;stroke:rgb(123,0,40);stroke-width:7.25px;"/>
        <g transform="matrix(1,0,0,0.93038,0,4.33026)">
            <path d="M76.522,62.198L76.522,37.103" style="fill:none;stroke:rgb(123,0,40);stroke-width:7.51px;"/>
        </g>
        <g transform="matrix(1.21393,0,0,1.21393,-3.18721,-2.3017)">
            <path d="M27.683,10.76L27.845,10.763L28.007,10.768L28.169,10.776L28.33,10.785L28.49,10.796L28.65,10.809L28.81,10.824L28.968,10.842L29.126,10.861L29.284,10.882L29.441,10.905L29.597,10.93L29.753,10.956L29.908,10.985L30.062,11.016L30.216,11.048L30.369,11.083L30.521,11.119L30.673,11.157L30.823,11.197L30.974,11.238L31.123,11.282L31.271,11.327L31.419,11.374L31.566,11.423L31.712,11.473L31.858,11.526L32.002,11.58L32.146,11.635L32.289,11.693L32.431,11.752L32.572,11.812L32.712,11.875L32.851,11.939L32.99,12.005L33.127,12.072L33.264,12.141L33.399,12.211L33.534,12.283L33.668,12.357L33.8,12.432L33.932,12.509L34.063,12.587L34.192,12.667L34.321,12.749L34.448,12.832L34.575,12.916L34.7,13.002L34.824,13.089L34.947,13.178L35.07,13.268L35.19,13.36L35.31,13.453L35.429,13.547L35.546,13.643L35.663,13.74L35.778,13.838L35.892,13.938L36.004,14.04L36.116,14.142L36.226,14.246L36.335,14.351L36.443,14.458L36.549,14.565L36.655,14.674L36.758,14.785L36.861,14.896L36.962,15.009L37.062,15.123L37.161,15.238L37.258,15.354L37.354,15.472L37.448,15.59L37.541,15.71L37.633,15.831L37.723,15.953L37.811,16.076L37.899,16.201L37.985,16.326L38.069,16.452L38.152,16.58L38.233,16.708L38.313,16.838L38.391,16.969L38.468,17.1L38.543,17.233L38.617,17.367L38.689,17.501L38.76,17.637L38.829,17.773L38.896,17.911L38.962,18.049L39.026,18.188L39.088,18.329L39.149,18.47L39.208,18.612L39.265,18.755L39.321,18.898L39.375,19.043L39.427,19.188L39.478,19.334L39.527,19.481L39.574,19.629L39.619,19.778L39.662,19.927L39.704,20.077L39.744,20.228L39.782,20.379L39.818,20.532L39.852,20.685L39.885,20.838L39.915,20.993L39.944,21.148L39.971,21.303L39.996,21.46L40.019,21.617L40.04,21.774L40.059,21.932L40.076,22.091L40.091,22.25L40.105,22.41L40.116,22.571L40.125,22.732L40.132,22.893L40.137,23.055L40.14,23.218L40.141,23.381L40.14,23.544L40.137,23.706L40.132,23.868L40.125,24.03L40.116,24.191L40.105,24.351L40.091,24.511L40.076,24.67L40.059,24.829L40.04,24.987L40.019,25.145L39.996,25.302L39.971,25.458L39.944,25.614L39.915,25.769L39.885,25.923L39.852,26.077L39.818,26.23L39.782,26.382L39.744,26.533L39.704,26.684L39.662,26.834L39.619,26.984L39.574,27.132L39.527,27.28L39.478,27.427L39.427,27.573L39.375,27.718L39.321,27.863L39.265,28.007L39.208,28.15L39.149,28.292L39.088,28.433L39.026,28.573L38.962,28.712L38.896,28.851L38.829,28.988L38.76,29.125L38.689,29.26L38.617,29.395L38.543,29.528L38.468,29.661L38.391,29.793L38.313,29.923L38.233,30.053L38.152,30.181L38.069,30.309L37.985,30.435L37.899,30.561L37.811,30.685L37.723,30.808L37.633,30.93L37.541,31.051L37.448,31.171L37.354,31.29L37.258,31.407L37.161,31.523L37.062,31.639L36.962,31.753L36.861,31.865L36.758,31.977L36.655,32.087L36.549,32.196L36.443,32.304L36.335,32.41L36.226,32.515L36.116,32.619L36.004,32.722L35.892,32.823L35.778,32.923L35.663,33.021L35.546,33.119L35.429,33.214L35.31,33.309L35.19,33.402L35.07,33.493L34.947,33.584L34.824,33.672L34.7,33.76L34.575,33.845L34.448,33.93L34.321,34.013L34.192,34.094L34.063,34.174L33.932,34.252L33.8,34.329L33.668,34.404L33.534,34.478L33.399,34.55L33.264,34.621L33.127,34.689L32.99,34.757L32.851,34.822L32.712,34.887L32.572,34.949L32.431,35.01L32.289,35.069L32.146,35.126L32.002,35.182L31.858,35.236L31.712,35.288L31.566,35.339L31.419,35.387L31.271,35.434L31.123,35.48L30.974,35.523L30.823,35.565L30.673,35.605L30.521,35.643L30.369,35.679L30.216,35.713L30.062,35.746L29.908,35.776L29.753,35.805L29.597,35.832L29.441,35.857L29.284,35.88L29.126,35.901L28.968,35.92L28.81,35.937L28.65,35.952L28.49,35.965L28.33,35.977L28.169,35.986L28.007,35.993L27.845,35.998L27.683,36.001L27.52,36.002L27.357,36.001L27.194,35.998L27.032,35.993L26.871,35.986L26.71,35.977L26.549,35.965L26.389,35.952L26.23,35.937L26.071,35.92L25.913,35.901L25.756,35.88L25.599,35.857L25.443,35.832L25.287,35.805L25.132,35.776L24.978,35.746L24.824,35.713L24.671,35.679L24.519,35.643L24.367,35.605L24.216,35.565L24.066,35.523L23.917,35.48L23.768,35.434L23.621,35.387L23.474,35.339L23.327,35.288L23.182,35.236L23.038,35.182L22.894,35.126L22.751,35.069L22.609,35.01L22.468,34.949L22.328,34.887L22.188,34.822L22.05,34.757L21.912,34.689L21.776,34.621L21.64,34.55L21.506,34.478L21.372,34.404L21.239,34.329L21.108,34.252L20.977,34.174L20.848,34.094L20.719,34.013L20.592,33.93L20.465,33.845L20.34,33.76L20.215,33.672L20.092,33.584L19.97,33.493L19.849,33.402L19.729,33.309L19.611,33.214L19.493,33.119L19.377,33.021L19.262,32.923L19.148,32.823L19.035,32.722L18.924,32.619L18.814,32.515L18.705,32.41L18.597,32.304L18.49,32.196L18.385,32.087L18.281,31.977L18.179,31.865L18.078,31.753L17.978,31.639L17.879,31.523L17.782,31.407L17.686,31.29L17.592,31.171L17.499,31.051L17.407,30.93L17.317,30.808L17.228,30.685L17.141,30.561L17.055,30.435L16.971,30.309L16.888,30.181L16.807,30.053L16.727,29.923L16.648,29.793L16.572,29.661L16.496,29.528L16.423,29.395L16.351,29.26L16.28,29.125L16.211,28.988L16.144,28.851L16.078,28.712L16.014,28.573L15.952,28.433L15.891,28.292L15.832,28.15L15.774,28.007L15.719,27.863L15.665,27.718L15.612,27.573L15.562,27.427L15.513,27.28L15.466,27.132L15.421,26.984L15.377,26.834L15.336,26.684L15.296,26.533L15.258,26.382L15.222,26.23L15.187,26.077L15.155,25.923L15.124,25.769L15.096,25.614L15.069,25.458L15.044,25.302L15.021,25.145L15,24.987L14.981,24.829L14.964,24.67L14.948,24.511L14.935,24.351L14.924,24.191L14.915,24.03L14.908,23.868L14.902,23.706L14.899,23.544L14.898,23.381L14.899,23.218L14.902,23.055L14.908,22.893L14.915,22.732L14.924,22.571L14.935,22.41L14.948,22.25L14.964,22.091L14.981,21.932L15,21.774L15.021,21.617L15.044,21.46L15.069,21.303L15.096,21.148L15.124,20.993L15.155,20.838L15.187,20.685L15.222,20.532L15.258,20.379L15.296,20.228L15.336,20.077L15.377,19.927L15.421,19.778L15.466,19.629L15.513,19.481L15.562,19.334L15.612,19.188L15.665,19.043L15.719,18.898L15.774,18.755L15.832,18.612L15.891,18.47L15.952,18.329L16.014,18.188L16.078,18.049L16.144,17.911L16.211,17.773L16.28,17.637L16.351,17.501L16.423,17.367L16.496,17.233L16.572,17.1L16.648,16.969L16.727,16.838L16.807,16.708L16.888,16.58L16.971,16.452L17.055,16.326L17.141,16.201L17.228,16.076L17.317,15.953L17.407,15.831L17.499,15.71L17.592,15.59L17.686,15.472L17.782,15.354L17.879,15.238L17.978,15.123L18.078,15.009L18.179,14.896L18.281,14.785L18.385,14.674L18.49,14.565L18.597,14.458L18.705,14.351L18.814,14.246L18.924,14.142L19.035,14.04L19.148,13.938L19.262,13.838L19.377,13.74L19.493,13.643L19.611,13.547L19.729,13.453L19.849,13.36L19.97,13.268L20.092,13.178L20.215,13.089L20.34,13.002L20.465,12.916L20.592,12.832L20.719,12.749L20.848,12.667L20.977,12.587L21.108,12.509L21.239,12.432L21.372,12.357L21.506,12.283L21.64,12.211L21.776,12.141L21.912,12.072L22.05,12.005L22.188,11.939L22.328,11.875L22.468,11.812L22.609,11.752L22.751,11.693L22.894,11.635L23.038,11.58L23.182,11.526L23.327,11.473L23.474,11.423L23.621,11.374L23.768,11.327L23.917,11.282L24.066,11.238L24.216,11.197L24.367,11.157L24.519,11.119L24.671,11.083L24.824,11.048L24.978,11.016L25.132,10.985L25.287,10.956L25.443,10.93L25.599,10.905L25.756,10.882L25.913,10.861L26.071,10.842L26.23,10.824L26.389,10.809L26.549,10.796L26.71,10.785L26.871,10.776L27.032,10.768L27.194,10.763L27.357,10.76L27.52,10.759L27.683,10.76ZM27.433,16.733L27.346,16.734L27.259,16.737L27.174,16.741L27.088,16.746L27.003,16.752L26.919,16.759L26.834,16.767L26.751,16.776L26.667,16.786L26.585,16.797L26.502,16.809L26.42,16.822L26.338,16.836L26.257,16.851L26.176,16.867L26.096,16.884L26.016,16.902L25.936,16.921L25.857,16.941L25.778,16.962L25.699,16.984L25.621,17.006L25.544,17.03L25.466,17.055L25.39,17.08L25.313,17.107L25.237,17.134L25.162,17.162L25.086,17.191L25.012,17.221L24.937,17.252L24.863,17.284L24.79,17.317L24.717,17.35L24.644,17.385L24.572,17.42L24.5,17.456L24.429,17.493L24.358,17.531L24.288,17.57L24.218,17.61L24.149,17.65L24.08,17.691L24.011,17.734L23.944,17.776L23.876,17.82L23.81,17.865L23.743,17.91L23.678,17.956L23.613,18.003L23.548,18.051L23.484,18.099L23.421,18.149L23.358,18.198L23.296,18.249L23.234,18.301L23.173,18.353L23.113,18.406L23.053,18.46L22.994,18.514L22.935,18.569L22.878,18.625L22.82,18.681L22.764,18.738L22.708,18.796L22.653,18.855L22.599,18.914L22.545,18.973L22.492,19.034L22.44,19.095L22.388,19.156L22.338,19.219L22.288,19.281L22.238,19.345L22.19,19.409L22.142,19.473L22.095,19.539L22.049,19.604L22.004,19.67L21.959,19.737L21.916,19.804L21.873,19.872L21.831,19.941L21.789,20.009L21.749,20.079L21.709,20.149L21.671,20.219L21.633,20.29L21.596,20.361L21.559,20.433L21.524,20.505L21.49,20.577L21.456,20.65L21.423,20.724L21.391,20.798L21.36,20.872L21.33,20.947L21.301,21.022L21.273,21.098L21.246,21.174L21.219,21.25L21.194,21.327L21.169,21.405L21.146,21.482L21.123,21.56L21.101,21.639L21.08,21.718L21.06,21.797L21.041,21.876L21.023,21.957L21.006,22.037L20.99,22.118L20.975,22.199L20.961,22.281L20.948,22.363L20.936,22.445L20.925,22.528L20.915,22.611L20.906,22.695L20.898,22.779L20.891,22.864L20.885,22.949L20.88,23.034L20.876,23.12L20.874,23.207L20.872,23.293L20.871,23.381L20.872,23.468L20.874,23.555L20.876,23.641L20.88,23.727L20.885,23.812L20.891,23.897L20.898,23.982L20.906,24.066L20.915,24.15L20.925,24.233L20.936,24.316L20.948,24.399L20.961,24.481L20.975,24.562L20.99,24.643L21.006,24.724L21.023,24.805L21.041,24.885L21.06,24.964L21.08,25.044L21.101,25.123L21.123,25.201L21.146,25.279L21.169,25.357L21.194,25.434L21.219,25.511L21.246,25.587L21.273,25.663L21.301,25.739L21.33,25.814L21.36,25.889L21.391,25.963L21.423,26.037L21.456,26.111L21.49,26.184L21.524,26.257L21.559,26.329L21.596,26.4L21.633,26.472L21.671,26.542L21.709,26.613L21.749,26.683L21.789,26.752L21.831,26.821L21.873,26.889L21.916,26.957L21.959,27.024L22.004,27.091L22.049,27.157L22.095,27.223L22.142,27.288L22.19,27.352L22.238,27.416L22.288,27.48L22.338,27.543L22.388,27.605L22.44,27.667L22.492,27.728L22.545,27.788L22.599,27.848L22.653,27.907L22.708,27.965L22.764,28.023L22.82,28.08L22.878,28.137L22.935,28.192L22.994,28.247L23.053,28.302L23.113,28.355L23.173,28.408L23.234,28.461L23.296,28.512L23.358,28.563L23.421,28.613L23.484,28.662L23.548,28.711L23.613,28.758L23.678,28.805L23.743,28.851L23.81,28.897L23.876,28.941L23.944,28.985L24.011,29.028L24.08,29.07L24.149,29.111L24.218,29.152L24.288,29.191L24.358,29.23L24.429,29.268L24.5,29.305L24.572,29.341L24.644,29.376L24.717,29.411L24.79,29.445L24.863,29.477L24.937,29.509L25.012,29.54L25.086,29.57L25.162,29.599L25.237,29.627L25.313,29.655L25.39,29.681L25.466,29.707L25.544,29.731L25.621,29.755L25.699,29.778L25.778,29.799L25.857,29.82L25.936,29.84L26.016,29.859L26.096,29.877L26.176,29.894L26.257,29.91L26.338,29.925L26.42,29.939L26.502,29.952L26.585,29.964L26.667,29.975L26.751,29.986L26.834,29.995L26.919,30.003L27.003,30.01L27.088,30.016L27.174,30.02L27.259,30.024L27.346,30.027L27.433,30.029L27.52,30.029L27.607,30.029L27.694,30.027L27.78,30.024L27.866,30.02L27.952,30.016L28.037,30.01L28.121,30.003L28.205,29.995L28.289,29.986L28.372,29.975L28.455,29.964L28.538,29.952L28.62,29.939L28.701,29.925L28.783,29.91L28.864,29.894L28.944,29.877L29.024,29.859L29.104,29.84L29.183,29.82L29.262,29.799L29.34,29.778L29.418,29.755L29.496,29.731L29.573,29.707L29.65,29.681L29.727,29.655L29.803,29.627L29.878,29.599L29.953,29.57L30.028,29.54L30.103,29.509L30.177,29.477L30.25,29.445L30.323,29.411L30.396,29.376L30.468,29.341L30.54,29.305L30.611,29.268L30.682,29.23L30.752,29.191L30.822,29.152L30.891,29.111L30.96,29.07L31.028,29.028L31.096,28.985L31.163,28.941L31.23,28.897L31.296,28.851L31.362,28.805L31.427,28.758L31.492,28.711L31.556,28.662L31.619,28.613L31.682,28.563L31.744,28.512L31.806,28.461L31.867,28.408L31.927,28.355L31.987,28.302L32.046,28.247L32.104,28.192L32.162,28.137L32.219,28.08L32.276,28.023L32.332,27.965L32.387,27.907L32.441,27.848L32.495,27.788L32.548,27.728L32.6,27.667L32.651,27.605L32.702,27.543L32.752,27.48L32.801,27.416L32.85,27.352L32.897,27.288L32.944,27.223L32.99,27.157L33.036,27.091L33.08,27.024L33.124,26.957L33.167,26.889L33.209,26.821L33.25,26.752L33.291,26.683L33.33,26.613L33.369,26.542L33.407,26.472L33.444,26.4L33.48,26.329L33.516,26.256L33.55,26.184L33.584,26.111L33.616,26.037L33.648,25.963L33.679,25.889L33.709,25.814L33.738,25.739L33.767,25.663L33.794,25.587L33.82,25.511L33.846,25.434L33.871,25.357L33.894,25.279L33.917,25.201L33.939,25.123L33.959,25.044L33.979,24.964L33.998,24.885L34.016,24.805L34.033,24.724L34.049,24.643L34.064,24.562L34.078,24.481L34.092,24.399L34.104,24.316L34.115,24.233L34.125,24.15L34.134,24.066L34.142,23.982L34.149,23.897L34.155,23.812L34.16,23.727L34.163,23.641L34.166,23.555L34.168,23.468L34.168,23.381L34.168,23.293L34.166,23.207L34.163,23.12L34.16,23.034L34.155,22.949L34.149,22.864L34.142,22.779L34.134,22.695L34.125,22.611L34.115,22.528L34.104,22.445L34.092,22.363L34.078,22.281L34.064,22.199L34.049,22.118L34.033,22.037L34.016,21.957L33.998,21.877L33.979,21.797L33.959,21.718L33.939,21.639L33.917,21.56L33.894,21.482L33.871,21.405L33.846,21.327L33.82,21.25L33.794,21.174L33.767,21.098L33.738,21.022L33.709,20.947L33.679,20.872L33.648,20.798L33.616,20.724L33.584,20.65L33.55,20.577L33.516,20.505L33.48,20.433L33.444,20.361L33.407,20.29L33.369,20.219L33.33,20.149L33.291,20.079L33.25,20.009L33.209,19.941L33.167,19.872L33.124,19.804L33.08,19.737L33.036,19.67L32.99,19.604L32.944,19.539L32.897,19.473L32.85,19.409L32.801,19.345L32.752,19.281L32.702,19.219L32.651,19.156L32.6,19.095L32.548,19.034L32.495,18.973L32.441,18.914L32.387,18.855L32.332,18.796L32.276,18.738L32.219,18.681L32.162,18.625L32.104,18.569L32.046,18.514L31.987,18.46L31.927,18.406L31.867,18.353L31.806,18.301L31.744,18.249L31.682,18.199L31.619,18.148L31.556,18.099L31.492,18.051L31.427,18.003L31.362,17.956L31.296,17.91L31.23,17.865L31.163,17.82L31.096,17.776L31.028,17.734L30.96,17.691L30.891,17.65L30.822,17.61L30.752,17.57L30.682,17.531L30.611,17.493L30.54,17.456L30.468,17.42L30.396,17.385L30.323,17.35L30.25,17.317L30.177,17.284L30.103,17.252L30.028,17.221L29.953,17.191L29.878,17.162L29.803,17.134L29.727,17.107L29.65,17.08L29.573,17.055L29.496,17.03L29.418,17.006L29.34,16.984L29.262,16.962L29.183,16.941L29.104,16.921L29.024,16.902L28.944,16.884L28.864,16.867L28.783,16.851L28.701,16.836L28.62,16.822L28.538,16.809L28.455,16.797L28.372,16.786L28.289,16.776L28.205,16.767L28.121,16.759L28.037,16.752L27.952,16.746L27.866,16.741L27.78,16.737L27.694,16.734L27.607,16.733L27.52,16.732L27.433,16.733Z" style="fill:rgb(255,131,69);"/>
        </g>
        <g transform="matrix(1.21393,0,0,1.21393,43.1143,-2.3017)">
            <path d="M27.683,10.76L27.845,10.763L28.007,10.768L28.169,10.776L28.33,10.785L28.49,10.796L28.65,10.809L28.81,10.824L28.968,10.842L29.126,10.861L29.284,10.882L29.441,10.905L29.597,10.93L29.753,10.956L29.908,10.985L30.062,11.016L30.216,11.048L30.369,11.083L30.521,11.119L30.673,11.157L30.823,11.197L30.974,11.238L31.123,11.282L31.271,11.327L31.419,11.374L31.566,11.423L31.712,11.473L31.858,11.526L32.002,11.58L32.146,11.635L32.289,11.693L32.431,11.752L32.572,11.812L32.712,11.875L32.851,11.939L32.99,12.005L33.127,12.072L33.264,12.141L33.399,12.211L33.534,12.283L33.668,12.357L33.8,12.432L33.932,12.509L34.063,12.587L34.192,12.667L34.321,12.749L34.448,12.832L34.575,12.916L34.7,13.002L34.824,13.089L34.947,13.178L35.07,13.268L35.19,13.36L35.31,13.453L35.429,13.547L35.546,13.643L35.663,13.74L35.778,13.838L35.892,13.938L36.004,14.04L36.116,14.142L36.226,14.246L36.335,14.351L36.443,14.458L36.549,14.565L36.655,14.674L36.758,14.785L36.861,14.896L36.962,15.009L37.062,15.123L37.161,15.238L37.258,15.354L37.354,15.472L37.448,15.59L37.541,15.71L37.633,15.831L37.723,15.953L37.811,16.076L37.899,16.201L37.985,16.326L38.069,16.452L38.152,16.58L38.233,16.708L38.313,16.838L38.391,16.969L38.468,17.1L38.543,17.233L38.617,17.367L38.689,17.501L38.76,17.637L38.829,17.773L38.896,17.911L38.962,18.049L39.026,18.188L39.088,18.329L39.149,18.47L39.208,18.612L39.265,18.755L39.321,18.898L39.375,19.043L39.427,19.188L39.478,19.334L39.527,19.481L39.574,19.629L39.619,19.778L39.662,19.927L39.704,20.077L39.744,20.228L39.782,20.379L39.818,20.532L39.852,20.685L39.885,20.838L39.915,20.993L39.944,21.148L39.971,21.303L39.996,21.46L40.019,21.617L40.04,21.774L40.059,21.932L40.076,22.091L40.091,22.25L40.105,22.41L40.116,22.571L40.125,22.732L40.132,22.893L40.137,23.055L40.14,23.218L40.141,23.381L40.14,23.544L40.137,23.706L40.132,23.868L40.125,24.03L40.116,24.191L40.105,24.351L40.091,24.511L40.076,24.67L40.059,24.829L40.04,24.987L40.019,25.145L39.996,25.302L39.971,25.458L39.944,25.614L39.915,25.769L39.885,25.923L39.852,26.077L39.818,26.23L39.782,26.382L39.744,26.533L39.704,26.684L39.662,26.834L39.619,26.984L39.574,27.132L39.527,27.28L39.478,27.427L39.427,27.573L39.375,27.718L39.321,27.863L39.265,28.007L39.208,28.15L39.149,28.292L39.088,28.433L39.026,28.573L38.962,28.712L38.896,28.851L38.829,28.988L38.76,29.125L38.689,29.26L38.617,29.395L38.543,29.528L38.468,29.661L38.391,29.793L38.313,29.923L38.233,30.053L38.152,30.181L38.069,30.309L37.985,30.435L37.899,30.561L37.811,30.685L37.723,30.808L37.633,30.93L37.541,31.051L37.448,31.171L37.354,31.29L37.258,31.407L37.161,31.523L37.062,31.639L36.962,31.753L36.861,31.865L36.758,31.977L36.655,32.087L36.549,32.196L36.443,32.304L36.335,32.41L36.226,32.515L36.116,32.619L36.004,32.722L35.892,32.823L35.778,32.923L35.663,33.021L35.546,33.119L35.429,33.214L35.31,33.309L35.19,33.402L35.07,33.493L34.947,33.584L34.824,33.672L34.7,33.76L34.575,33.845L34.448,33.93L34.321,34.013L34.192,34.094L34.063,34.174L33.932,34.252L33.8,34.329L33.668,34.404L33.534,34.478L33.399,34.55L33.264,34.621L33.127,34.689L32.99,34.757L32.851,34.822L32.712,34.887L32.572,34.949L32.431,35.01L32.289,35.069L32.146,35.126L32.002,35.182L31.858,35.236L31.712,35.288L31.566,35.339L31.419,35.387L31.271,35.434L31.123,35.48L30.974,35.523L30.823,35.565L30.673,35.605L30.521,35.643L30.369,35.679L30.216,35.713L30.062,35.746L29.908,35.776L29.753,35.805L29.597,35.832L29.441,35.857L29.284,35.88L29.126,35.901L28.968,35.92L28.81,35.937L28.65,35.952L28.49,35.965L28.33,35.977L28.169,35.986L28.007,35.993L27.845,35.998L27.683,36.001L27.52,36.002L27.357,36.001L27.194,35.998L27.032,35.993L26.871,35.986L26.71,35.977L26.549,35.965L26.389,35.952L26.23,35.937L26.071,35.92L25.913,35.901L25.756,35.88L25.599,35.857L25.443,35.832L25.287,35.805L25.132,35.776L24.978,35.746L24.824,35.713L24.671,35.679L24.519,35.643L24.367,35.605L24.216,35.565L24.066,35.523L23.917,35.48L23.768,35.434L23.621,35.387L23.474,35.339L23.327,35.288L23.182,35.236L23.038,35.182L22.894,35.126L22.751,35.069L22.609,35.01L22.468,34.949L22.328,34.887L22.188,34.822L22.05,34.757L21.912,34.689L21.776,34.621L21.64,34.55L21.506,34.478L21.372,34.404L21.239,34.329L21.108,34.252L20.977,34.174L20.848,34.094L20.719,34.013L20.592,33.93L20.465,33.845L20.34,33.76L20.215,33.672L20.092,33.584L19.97,33.493L19.849,33.402L19.729,33.309L19.611,33.214L19.493,33.119L19.377,33.021L19.262,32.923L19.148,32.823L19.035,32.722L18.924,32.619L18.814,32.515L18.705,32.41L18.597,32.304L18.49,32.196L18.385,32.087L18.281,31.977L18.179,31.865L18.078,31.753L17.978,31.639L17.879,31.523L17.782,31.407L17.686,31.29L17.592,31.171L17.499,31.051L17.407,30.93L17.317,30.808L17.228,30.685L17.141,30.561L17.055,30.435L16.971,30.309L16.888,30.181L16.807,30.053L16.727,29.923L16.648,29.793L16.572,29.661L16.496,29.528L16.423,29.395L16.351,29.26L16.28,29.125L16.211,28.988L16.144,28.851L16.078,28.712L16.014,28.573L15.952,28.433L15.891,28.292L15.832,28.15L15.774,28.007L15.719,27.863L15.665,27.718L15.612,27.573L15.562,27.427L15.513,27.28L15.466,27.132L15.421,26.984L15.377,26.834L15.336,26.684L15.296,26.533L15.258,26.382L15.222,26.23L15.187,26.077L15.155,25.923L15.124,25.769L15.096,25.614L15.069,25.458L15.044,25.302L15.021,25.145L15,24.987L14.981,24.829L14.964,24.67L14.948,24.511L14.935,24.351L14.924,24.191L14.915,24.03L14.908,23.868L14.902,23.706L14.899,23.544L14.898,23.381L14.899,23.218L14.902,23.055L14.908,22.893L14.915,22.732L14.924,22.571L14.935,22.41L14.948,22.25L14.964,22.091L14.981,21.932L15,21.774L15.021,21.617L15.044,21.46L15.069,21.303L15.096,21.148L15.124,20.993L15.155,20.838L15.187,20.685L15.222,20.532L15.258,20.379L15.296,20.228L15.336,20.077L15.377,19.927L15.421,19.778L15.466,19.629L15.513,19.481L15.562,19.334L15.612,19.188L15.665,19.043L15.719,18.898L15.774,18.755L15.832,18.612L15.891,18.47L15.952,18.329L16.014,18.188L16.078,18.049L16.144,17.911L16.211,17.773L16.28,17.637L16.351,17.501L16.423,17.367L16.496,17.233L16.572,17.1L16.648,16.969L16.727,16.838L16.807,16.708L16.888,16.58L16.971,16.452L17.055,16.326L17.141,16.201L17.228,16.076L17.317,15.953L17.407,15.831L17.499,15.71L17.592,15.59L17.686,15.472L17.782,15.354L17.879,15.238L17.978,15.123L18.078,15.009L18.179,14.896L18.281,14.785L18.385,14.674L18.49,14.565L18.597,14.458L18.705,14.351L18.814,14.246L18.924,14.142L19.035,14.04L19.148,13.938L19.262,13.838L19.377,13.74L19.493,13.643L19.611,13.547L19.729,13.453L19.849,13.36L19.97,13.268L20.092,13.178L20.215,13.089L20.34,13.002L20.465,12.916L20.592,12.832L20.719,12.749L20.848,12.667L20.977,12.587L21.108,12.509L21.239,12.432L21.372,12.357L21.506,12.283L21.64,12.211L21.776,12.141L21.912,12.072L22.05,12.005L22.188,11.939L22.328,11.875L22.468,11.812L22.609,11.752L22.751,11.693L22.894,11.635L23.038,11.58L23.182,11.526L23.327,11.473L23.474,11.423L23.621,11.374L23.768,11.327L23.917,11.282L24.066,11.238L24.216,11.197L24.367,11.157L24.519,11.119L24.671,11.083L24.824,11.048L24.978,11.016L25.132,10.985L25.287,10.956L25.443,10.93L25.599,10.905L25.756,10.882L25.913,10.861L26.071,10.842L26.23,10.824L26.389,10.809L26.549,10.796L26.71,10.785L26.871,10.776L27.032,10.768L27.194,10.763L27.357,10.76L27.52,10.759L27.683,10.76ZM27.433,16.733L27.346,16.734L27.259,16.737L27.174,16.741L27.088,16.746L27.003,16.752L26.919,16.759L26.834,16.767L26.751,16.776L26.667,16.786L26.584,16.797L26.502,16.809L26.42,16.822L26.338,16.836L26.257,16.851L26.176,16.867L26.096,16.884L26.016,16.902L25.936,16.921L25.857,16.941L25.778,16.962L25.699,16.984L25.621,17.006L25.544,17.03L25.466,17.055L25.39,17.08L25.313,17.106L25.237,17.134L25.162,17.162L25.086,17.191L25.012,17.221L24.937,17.252L24.863,17.284L24.79,17.317L24.717,17.35L24.644,17.385L24.572,17.42L24.5,17.456L24.429,17.493L24.358,17.531L24.288,17.57L24.218,17.61L24.149,17.65L24.08,17.691L24.011,17.734L23.944,17.776L23.876,17.82L23.81,17.865L23.743,17.91L23.678,17.956L23.613,18.003L23.548,18.051L23.484,18.099L23.421,18.149L23.358,18.198L23.296,18.249L23.234,18.301L23.173,18.353L23.113,18.406L23.053,18.46L22.994,18.514L22.935,18.569L22.877,18.625L22.82,18.681L22.764,18.738L22.708,18.796L22.653,18.855L22.599,18.914L22.545,18.973L22.492,19.034L22.44,19.095L22.388,19.156L22.338,19.219L22.288,19.281L22.238,19.345L22.19,19.409L22.142,19.473L22.095,19.539L22.049,19.604L22.004,19.67L21.959,19.737L21.916,19.804L21.873,19.872L21.831,19.941L21.789,20.009L21.749,20.079L21.709,20.149L21.671,20.219L21.633,20.29L21.596,20.361L21.559,20.433L21.524,20.505L21.49,20.577L21.456,20.651L21.423,20.724L21.391,20.798L21.36,20.872L21.33,20.947L21.301,21.022L21.273,21.098L21.246,21.174L21.219,21.25L21.194,21.327L21.169,21.404L21.146,21.482L21.123,21.56L21.101,21.639L21.08,21.718L21.06,21.797L21.041,21.876L21.023,21.957L21.006,22.037L20.99,22.118L20.975,22.199L20.961,22.281L20.948,22.363L20.936,22.445L20.925,22.528L20.915,22.611L20.906,22.695L20.898,22.779L20.891,22.864L20.885,22.949L20.88,23.034L20.876,23.12L20.874,23.207L20.872,23.293L20.871,23.381L20.872,23.468L20.874,23.555L20.876,23.641L20.88,23.727L20.885,23.812L20.891,23.897L20.898,23.982L20.906,24.066L20.915,24.15L20.925,24.233L20.936,24.316L20.948,24.399L20.961,24.481L20.975,24.562L20.99,24.643L21.006,24.724L21.023,24.805L21.041,24.885L21.06,24.964L21.08,25.044L21.101,25.123L21.123,25.201L21.146,25.279L21.169,25.357L21.194,25.434L21.219,25.511L21.246,25.587L21.273,25.663L21.301,25.739L21.33,25.814L21.36,25.889L21.391,25.963L21.423,26.037L21.456,26.111L21.49,26.184L21.524,26.257L21.559,26.329L21.596,26.4L21.633,26.472L21.671,26.542L21.709,26.613L21.749,26.683L21.789,26.752L21.831,26.821L21.873,26.889L21.916,26.957L21.959,27.024L22.004,27.091L22.049,27.157L22.095,27.223L22.142,27.288L22.19,27.353L22.238,27.416L22.288,27.48L22.338,27.543L22.388,27.605L22.44,27.667L22.492,27.728L22.545,27.788L22.599,27.848L22.653,27.907L22.708,27.965L22.764,28.023L22.82,28.08L22.878,28.137L22.935,28.192L22.994,28.247L23.053,28.302L23.113,28.355L23.173,28.408L23.234,28.461L23.296,28.512L23.358,28.563L23.421,28.613L23.484,28.662L23.548,28.71L23.613,28.758L23.678,28.805L23.743,28.851L23.81,28.897L23.876,28.941L23.944,28.985L24.011,29.028L24.08,29.07L24.149,29.111L24.218,29.152L24.288,29.191L24.358,29.23L24.429,29.268L24.5,29.305L24.572,29.341L24.644,29.376L24.717,29.411L24.79,29.445L24.863,29.477L24.937,29.509L25.012,29.54L25.086,29.57L25.162,29.599L25.237,29.627L25.313,29.655L25.39,29.681L25.466,29.707L25.544,29.731L25.621,29.755L25.699,29.778L25.778,29.799L25.857,29.82L25.936,29.84L26.016,29.859L26.096,29.877L26.176,29.894L26.257,29.91L26.338,29.925L26.42,29.939L26.502,29.952L26.585,29.964L26.667,29.975L26.751,29.986L26.834,29.995L26.919,30.003L27.003,30.01L27.088,30.016L27.174,30.02L27.259,30.024L27.346,30.027L27.433,30.029L27.52,30.029L27.607,30.029L27.694,30.027L27.78,30.024L27.866,30.02L27.952,30.016L28.037,30.01L28.121,30.003L28.205,29.995L28.289,29.986L28.372,29.975L28.455,29.964L28.538,29.952L28.62,29.939L28.701,29.925L28.783,29.91L28.864,29.894L28.944,29.877L29.024,29.859L29.104,29.84L29.183,29.82L29.262,29.799L29.34,29.778L29.418,29.755L29.496,29.731L29.573,29.707L29.65,29.681L29.727,29.655L29.803,29.627L29.878,29.599L29.953,29.57L30.028,29.54L30.103,29.509L30.177,29.477L30.25,29.445L30.323,29.411L30.396,29.377L30.468,29.341L30.54,29.305L30.611,29.268L30.682,29.23L30.752,29.191L30.822,29.152L30.891,29.111L30.96,29.07L31.028,29.028L31.096,28.985L31.163,28.941L31.23,28.897L31.296,28.851L31.362,28.805L31.427,28.758L31.492,28.711L31.556,28.662L31.619,28.613L31.682,28.563L31.744,28.512L31.806,28.461L31.867,28.408L31.927,28.355L31.987,28.302L32.046,28.247L32.104,28.192L32.162,28.137L32.219,28.08L32.276,28.023L32.332,27.965L32.387,27.907L32.441,27.848L32.495,27.788L32.548,27.728L32.6,27.667L32.651,27.605L32.702,27.543L32.752,27.48L32.801,27.416L32.85,27.353L32.897,27.288L32.944,27.223L32.99,27.157L33.036,27.091L33.08,27.024L33.124,26.957L33.167,26.889L33.209,26.821L33.25,26.752L33.291,26.682L33.33,26.613L33.369,26.542L33.407,26.472L33.444,26.4L33.48,26.329L33.516,26.257L33.55,26.184L33.584,26.111L33.617,26.037L33.648,25.963L33.679,25.889L33.709,25.814L33.738,25.739L33.767,25.663L33.794,25.587L33.82,25.511L33.846,25.434L33.871,25.357L33.894,25.279L33.917,25.201L33.939,25.123L33.96,25.044L33.979,24.964L33.998,24.885L34.016,24.805L34.033,24.724L34.049,24.643L34.064,24.562L34.078,24.481L34.092,24.399L34.104,24.316L34.115,24.233L34.125,24.15L34.134,24.066L34.142,23.982L34.149,23.897L34.155,23.812L34.16,23.727L34.163,23.641L34.166,23.555L34.168,23.468L34.168,23.381L34.168,23.293L34.166,23.207L34.163,23.12L34.16,23.034L34.155,22.949L34.149,22.864L34.142,22.779L34.134,22.695L34.125,22.611L34.115,22.528L34.104,22.445L34.092,22.363L34.078,22.281L34.064,22.199L34.049,22.118L34.033,22.037L34.016,21.957L33.998,21.876L33.979,21.797L33.96,21.718L33.939,21.639L33.917,21.56L33.894,21.482L33.871,21.405L33.846,21.327L33.82,21.25L33.794,21.174L33.767,21.098L33.738,21.022L33.709,20.947L33.679,20.872L33.648,20.798L33.617,20.724L33.584,20.651L33.55,20.577L33.516,20.505L33.48,20.433L33.444,20.361L33.407,20.29L33.369,20.219L33.33,20.149L33.291,20.079L33.25,20.009L33.209,19.941L33.167,19.872L33.124,19.805L33.08,19.737L33.036,19.67L32.99,19.604L32.944,19.539L32.897,19.473L32.85,19.409L32.801,19.345L32.752,19.281L32.702,19.219L32.651,19.156L32.6,19.095L32.548,19.034L32.495,18.973L32.441,18.914L32.387,18.855L32.332,18.796L32.276,18.738L32.219,18.681L32.162,18.625L32.104,18.569L32.046,18.514L31.987,18.46L31.927,18.406L31.867,18.353L31.806,18.301L31.744,18.249L31.682,18.198L31.619,18.149L31.556,18.099L31.492,18.051L31.427,18.003L31.362,17.956L31.296,17.91L31.23,17.865L31.163,17.82L31.096,17.776L31.028,17.734L30.96,17.691L30.891,17.65L30.822,17.61L30.752,17.57L30.682,17.531L30.611,17.493L30.54,17.456L30.468,17.42L30.396,17.385L30.323,17.35L30.25,17.317L30.177,17.284L30.103,17.252L30.028,17.221L29.953,17.191L29.878,17.162L29.803,17.134L29.727,17.106L29.65,17.08L29.573,17.055L29.496,17.03L29.418,17.006L29.34,16.984L29.262,16.962L29.183,16.941L29.104,16.921L29.024,16.902L28.944,16.884L28.864,16.867L28.783,16.851L28.701,16.836L28.62,16.822L28.538,16.809L28.455,16.797L28.372,16.786L28.289,16.776L28.205,16.767L28.121,16.759L28.037,16.752L27.952,16.746L27.866,16.741L27.78,16.737L27.694,16.734L27.607,16.733L27.52,16.732L27.433,16.733Z" style="fill:rgb(135,69,255);"/>
        </g>
        <g transform="matrix(1.21393,0,0,1.21393,43.1143,45.5367)">
            <path d="M27.683,10.76L27.845,10.763L28.007,10.768L28.169,10.776L28.33,10.785L28.49,10.796L28.65,10.809L28.81,10.824L28.968,10.842L29.126,10.861L29.284,10.882L29.441,10.905L29.597,10.93L29.753,10.956L29.908,10.985L30.062,11.016L30.216,11.048L30.369,11.083L30.521,11.119L30.673,11.157L30.823,11.197L30.974,11.238L31.123,11.282L31.271,11.327L31.419,11.374L31.566,11.423L31.712,11.473L31.858,11.526L32.002,11.58L32.146,11.635L32.289,11.693L32.431,11.752L32.572,11.812L32.712,11.875L32.851,11.939L32.99,12.005L33.127,12.072L33.264,12.141L33.399,12.211L33.534,12.283L33.668,12.357L33.8,12.432L33.932,12.509L34.063,12.587L34.192,12.667L34.321,12.749L34.448,12.832L34.575,12.916L34.7,13.002L34.824,13.089L34.947,13.178L35.07,13.268L35.19,13.36L35.31,13.453L35.429,13.547L35.546,13.643L35.663,13.74L35.778,13.838L35.892,13.938L36.004,14.04L36.116,14.142L36.226,14.246L36.335,14.351L36.443,14.458L36.549,14.565L36.655,14.674L36.758,14.785L36.861,14.896L36.962,15.009L37.062,15.123L37.161,15.238L37.258,15.354L37.354,15.472L37.448,15.59L37.541,15.71L37.633,15.831L37.723,15.953L37.811,16.076L37.899,16.201L37.985,16.326L38.069,16.452L38.152,16.58L38.233,16.708L38.313,16.838L38.391,16.969L38.468,17.1L38.543,17.233L38.617,17.367L38.689,17.501L38.76,17.637L38.829,17.773L38.896,17.911L38.962,18.049L39.026,18.188L39.088,18.329L39.149,18.47L39.208,18.612L39.265,18.755L39.321,18.898L39.375,19.043L39.427,19.188L39.478,19.334L39.527,19.481L39.574,19.629L39.619,19.778L39.662,19.927L39.704,20.077L39.744,20.228L39.782,20.379L39.818,20.532L39.852,20.685L39.885,20.838L39.915,20.993L39.944,21.148L39.971,21.303L39.996,21.46L40.019,21.617L40.04,21.774L40.059,21.932L40.076,22.091L40.091,22.25L40.105,22.41L40.116,22.571L40.125,22.732L40.132,22.893L40.137,23.055L40.14,23.218L40.141,23.381L40.14,23.544L40.137,23.706L40.132,23.868L40.125,24.03L40.116,24.191L40.105,24.351L40.091,24.511L40.076,24.67L40.059,24.829L40.04,24.987L40.019,25.145L39.996,25.302L39.971,25.458L39.944,25.614L39.915,25.769L39.885,25.923L39.852,26.077L39.818,26.23L39.782,26.382L39.744,26.533L39.704,26.684L39.662,26.834L39.619,26.984L39.574,27.132L39.527,27.28L39.478,27.427L39.427,27.573L39.375,27.718L39.321,27.863L39.265,28.007L39.208,28.15L39.149,28.292L39.088,28.433L39.026,28.573L38.962,28.712L38.896,28.851L38.829,28.988L38.76,29.125L38.689,29.26L38.617,29.395L38.543,29.528L38.468,29.661L38.391,29.793L38.313,29.923L38.233,30.053L38.152,30.181L38.069,30.309L37.985,30.435L37.899,30.561L37.811,30.685L37.723,30.808L37.633,30.93L37.541,31.051L37.448,31.171L37.354,31.29L37.258,31.407L37.161,31.523L37.062,31.639L36.962,31.753L36.861,31.865L36.758,31.977L36.655,32.087L36.549,32.196L36.443,32.304L36.335,32.41L36.226,32.515L36.116,32.619L36.004,32.722L35.892,32.823L35.778,32.923L35.663,33.021L35.546,33.119L35.429,33.214L35.31,33.309L35.19,33.402L35.07,33.493L34.947,33.584L34.824,33.672L34.7,33.76L34.575,33.845L34.448,33.93L34.321,34.013L34.192,34.094L34.063,34.174L33.932,34.252L33.8,34.329L33.668,34.404L33.534,34.478L33.399,34.55L33.264,34.621L33.127,34.689L32.99,34.757L32.851,34.822L32.712,34.887L32.572,34.949L32.431,35.01L32.289,35.069L32.146,35.126L32.002,35.182L31.858,35.236L31.712,35.288L31.566,35.339L31.419,35.387L31.271,35.434L31.123,35.48L30.974,35.523L30.823,35.565L30.673,35.605L30.521,35.643L30.369,35.679L30.216,35.713L30.062,35.746L29.908,35.776L29.753,35.805L29.597,35.832L29.441,35.857L29.284,35.88L29.126,35.901L28.968,35.92L28.81,35.937L28.65,35.952L28.49,35.965L28.33,35.977L28.169,35.986L28.007,35.993L27.845,35.998L27.683,36.001L27.52,36.002L27.357,36.001L27.194,35.998L27.032,35.993L26.871,35.986L26.71,35.977L26.549,35.965L26.389,35.952L26.23,35.937L26.071,35.92L25.913,35.901L25.756,35.88L25.599,35.857L25.443,35.832L25.287,35.805L25.132,35.776L24.978,35.746L24.824,35.713L24.671,35.679L24.519,35.643L24.367,35.605L24.216,35.565L24.066,35.523L23.917,35.48L23.768,35.434L23.621,35.387L23.474,35.339L23.327,35.288L23.182,35.236L23.038,35.182L22.894,35.126L22.751,35.069L22.609,35.01L22.468,34.949L22.328,34.887L22.188,34.822L22.05,34.757L21.912,34.689L21.776,34.621L21.64,34.55L21.506,34.478L21.372,34.404L21.239,34.329L21.108,34.252L20.977,34.174L20.848,34.094L20.719,34.013L20.592,33.93L20.465,33.845L20.34,33.76L20.215,33.672L20.092,33.584L19.97,33.493L19.849,33.402L19.729,33.309L19.611,33.214L19.493,33.119L19.377,33.021L19.262,32.923L19.148,32.823L19.035,32.722L18.924,32.619L18.814,32.515L18.705,32.41L18.597,32.304L18.49,32.196L18.385,32.087L18.281,31.977L18.179,31.865L18.078,31.753L17.978,31.639L17.879,31.523L17.782,31.407L17.686,31.29L17.592,31.171L17.499,31.051L17.407,30.93L17.317,30.808L17.228,30.685L17.141,30.561L17.055,30.435L16.971,30.309L16.888,30.181L16.807,30.053L16.727,29.923L16.648,29.793L16.572,29.661L16.496,29.528L16.423,29.395L16.351,29.26L16.28,29.125L16.211,28.988L16.144,28.851L16.078,28.712L16.014,28.573L15.952,28.433L15.891,28.292L15.832,28.15L15.774,28.007L15.719,27.863L15.665,27.718L15.612,27.573L15.562,27.427L15.513,27.28L15.466,27.132L15.421,26.984L15.377,26.834L15.336,26.684L15.296,26.533L15.258,26.382L15.222,26.23L15.187,26.077L15.155,25.923L15.124,25.769L15.096,25.614L15.069,25.458L15.044,25.302L15.021,25.145L15,24.987L14.981,24.829L14.964,24.67L14.948,24.511L14.935,24.351L14.924,24.191L14.915,24.03L14.908,23.868L14.902,23.706L14.899,23.544L14.898,23.381L14.899,23.218L14.902,23.055L14.908,22.893L14.915,22.732L14.924,22.571L14.935,22.41L14.948,22.25L14.964,22.091L14.981,21.932L15,21.774L15.021,21.617L15.044,21.46L15.069,21.303L15.096,21.148L15.124,20.993L15.155,20.838L15.187,20.685L15.222,20.532L15.258,20.379L15.296,20.228L15.336,20.077L15.377,19.927L15.421,19.778L15.466,19.629L15.513,19.481L15.562,19.334L15.612,19.188L15.665,19.043L15.719,18.898L15.774,18.755L15.832,18.612L15.891,18.47L15.952,18.329L16.014,18.188L16.078,18.049L16.144,17.911L16.211,17.773L16.28,17.637L16.351,17.501L16.423,17.367L16.496,17.233L16.572,17.1L16.648,16.969L16.727,16.838L16.807,16.708L16.888,16.58L16.971,16.452L17.055,16.326L17.141,16.201L17.228,16.076L17.317,15.953L17.407,15.831L17.499,15.71L17.592,15.59L17.686,15.472L17.782,15.354L17.879,15.238L17.978,15.123L18.078,15.009L18.179,14.896L18.281,14.785L18.385,14.674L18.49,14.565L18.597,14.458L18.705,14.351L18.814,14.246L18.924,14.142L19.035,14.04L19.148,13.938L19.262,13.838L19.377,13.74L19.493,13.643L19.611,13.547L19.729,13.453L19.849,13.36L19.97,13.268L20.092,13.178L20.215,13.089L20.34,13.002L20.465,12.916L20.592,12.832L20.719,12.749L20.848,12.667L20.977,12.587L21.108,12.509L21.239,12.432L21.372,12.357L21.506,12.283L21.64,12.211L21.776,12.141L21.912,12.072L22.05,12.005L22.188,11.939L22.328,11.875L22.468,11.812L22.609,11.752L22.751,11.693L22.894,11.635L23.038,11.58L23.182,11.526L23.327,11.473L23.474,11.423L23.621,11.374L23.768,11.327L23.917,11.282L24.066,11.238L24.216,11.197L24.367,11.157L24.519,11.119L24.671,11.083L24.824,11.048L24.978,11.016L25.132,10.985L25.287,10.956L25.443,10.93L25.599,10.905L25.756,10.882L25.913,10.861L26.071,10.842L26.23,10.824L26.389,10.809L26.549,10.796L26.71,10.785L26.871,10.776L27.032,10.768L27.194,10.763L27.357,10.76L27.52,10.759L27.683,10.76ZM27.433,16.733L27.346,16.734L27.259,16.737L27.174,16.741L27.088,16.746L27.003,16.752L26.919,16.759L26.834,16.767L26.751,16.776L26.667,16.786L26.585,16.797L26.502,16.809L26.42,16.822L26.338,16.836L26.257,16.851L26.176,16.867L26.096,16.884L26.016,16.902L25.936,16.921L25.857,16.941L25.778,16.962L25.7,16.984L25.621,17.006L25.544,17.03L25.466,17.055L25.39,17.08L25.313,17.106L25.237,17.134L25.161,17.162L25.086,17.191L25.012,17.221L24.937,17.252L24.863,17.284L24.79,17.317L24.717,17.35L24.644,17.385L24.572,17.42L24.5,17.456L24.429,17.493L24.358,17.531L24.288,17.57L24.218,17.61L24.149,17.65L24.08,17.691L24.011,17.734L23.944,17.776L23.876,17.82L23.81,17.865L23.743,17.91L23.678,17.956L23.613,18.003L23.548,18.051L23.484,18.099L23.421,18.148L23.358,18.198L23.296,18.249L23.234,18.301L23.173,18.353L23.113,18.406L23.053,18.46L22.994,18.514L22.935,18.569L22.878,18.625L22.82,18.681L22.764,18.738L22.708,18.796L22.653,18.855L22.599,18.914L22.545,18.973L22.492,19.034L22.44,19.095L22.388,19.156L22.338,19.219L22.288,19.281L22.238,19.345L22.19,19.409L22.142,19.473L22.095,19.539L22.049,19.604L22.004,19.67L21.959,19.737L21.916,19.804L21.873,19.872L21.831,19.941L21.789,20.009L21.749,20.079L21.709,20.149L21.671,20.219L21.633,20.29L21.596,20.361L21.559,20.433L21.524,20.505L21.49,20.577L21.456,20.651L21.423,20.724L21.391,20.798L21.36,20.872L21.33,20.947L21.301,21.022L21.273,21.098L21.246,21.174L21.219,21.25L21.194,21.327L21.169,21.404L21.146,21.482L21.123,21.56L21.101,21.639L21.08,21.718L21.06,21.797L21.041,21.876L21.023,21.957L21.006,22.037L20.99,22.118L20.975,22.199L20.961,22.281L20.948,22.363L20.936,22.445L20.925,22.528L20.915,22.611L20.906,22.695L20.898,22.779L20.891,22.864L20.885,22.949L20.88,23.034L20.876,23.12L20.874,23.207L20.872,23.293L20.871,23.381L20.872,23.468L20.874,23.555L20.876,23.641L20.88,23.727L20.885,23.812L20.891,23.897L20.898,23.982L20.906,24.066L20.915,24.15L20.925,24.233L20.936,24.316L20.948,24.399L20.961,24.481L20.975,24.562L20.99,24.643L21.006,24.724L21.023,24.805L21.041,24.885L21.06,24.964L21.08,25.044L21.101,25.123L21.123,25.201L21.146,25.279L21.169,25.357L21.194,25.434L21.219,25.511L21.246,25.587L21.273,25.663L21.301,25.739L21.33,25.814L21.36,25.889L21.391,25.963L21.423,26.037L21.456,26.111L21.49,26.184L21.524,26.257L21.559,26.329L21.596,26.4L21.633,26.472L21.671,26.542L21.709,26.613L21.749,26.683L21.789,26.752L21.831,26.821L21.873,26.889L21.916,26.957L21.959,27.024L22.004,27.091L22.049,27.157L22.095,27.223L22.142,27.288L22.19,27.352L22.238,27.416L22.288,27.48L22.338,27.543L22.388,27.605L22.44,27.667L22.492,27.728L22.545,27.788L22.599,27.848L22.653,27.907L22.708,27.965L22.764,28.023L22.82,28.08L22.878,28.137L22.935,28.192L22.994,28.247L23.053,28.302L23.113,28.355L23.173,28.408L23.234,28.461L23.296,28.512L23.358,28.563L23.421,28.613L23.484,28.662L23.548,28.71L23.613,28.758L23.678,28.805L23.743,28.851L23.81,28.897L23.876,28.941L23.944,28.985L24.012,29.028L24.08,29.07L24.149,29.111L24.218,29.152L24.288,29.191L24.358,29.23L24.429,29.268L24.5,29.305L24.572,29.341L24.644,29.376L24.717,29.411L24.79,29.445L24.863,29.477L24.937,29.509L25.012,29.54L25.086,29.57L25.161,29.599L25.237,29.627L25.313,29.655L25.39,29.681L25.466,29.707L25.544,29.731L25.621,29.755L25.7,29.778L25.778,29.799L25.857,29.82L25.936,29.84L26.016,29.859L26.096,29.877L26.176,29.894L26.257,29.91L26.338,29.925L26.42,29.939L26.502,29.952L26.585,29.964L26.667,29.976L26.751,29.986L26.834,29.995L26.919,30.003L27.003,30.01L27.088,30.016L27.174,30.02L27.259,30.024L27.346,30.027L27.433,30.029L27.52,30.029L27.607,30.029L27.694,30.027L27.78,30.024L27.866,30.02L27.952,30.016L28.037,30.01L28.121,30.003L28.205,29.995L28.289,29.986L28.372,29.976L28.455,29.964L28.538,29.952L28.62,29.939L28.701,29.925L28.783,29.91L28.864,29.894L28.944,29.877L29.024,29.859L29.104,29.84L29.183,29.82L29.262,29.799L29.34,29.778L29.418,29.755L29.496,29.731L29.573,29.707L29.65,29.681L29.726,29.655L29.803,29.627L29.878,29.599L29.953,29.57L30.028,29.54L30.103,29.509L30.177,29.477L30.25,29.445L30.323,29.411L30.396,29.376L30.468,29.341L30.54,29.305L30.611,29.268L30.682,29.23L30.752,29.191L30.822,29.152L30.891,29.111L30.96,29.07L31.028,29.028L31.096,28.985L31.163,28.941L31.23,28.897L31.296,28.851L31.362,28.805L31.427,28.758L31.492,28.71L31.556,28.662L31.619,28.613L31.682,28.563L31.744,28.512L31.806,28.461L31.867,28.408L31.927,28.355L31.987,28.302L32.046,28.247L32.104,28.192L32.162,28.137L32.219,28.08L32.276,28.023L32.332,27.965L32.387,27.907L32.441,27.848L32.495,27.788L32.548,27.728L32.6,27.667L32.651,27.605L32.702,27.543L32.752,27.48L32.801,27.416L32.85,27.352L32.897,27.288L32.944,27.223L32.99,27.157L33.036,27.091L33.08,27.024L33.124,26.957L33.167,26.889L33.209,26.821L33.25,26.752L33.291,26.682L33.33,26.613L33.369,26.542L33.407,26.472L33.444,26.4L33.48,26.329L33.516,26.257L33.55,26.184L33.584,26.111L33.617,26.037L33.648,25.963L33.679,25.889L33.709,25.814L33.738,25.739L33.767,25.663L33.794,25.587L33.82,25.511L33.846,25.434L33.871,25.357L33.894,25.279L33.917,25.201L33.939,25.123L33.96,25.044L33.979,24.964L33.998,24.885L34.016,24.805L34.033,24.724L34.049,24.643L34.064,24.562L34.078,24.481L34.092,24.399L34.104,24.316L34.115,24.233L34.125,24.15L34.134,24.066L34.142,23.982L34.149,23.897L34.155,23.812L34.16,23.727L34.163,23.641L34.166,23.555L34.168,23.468L34.168,23.381L34.168,23.293L34.166,23.207L34.163,23.12L34.16,23.034L34.155,22.949L34.149,22.864L34.142,22.779L34.134,22.695L34.125,22.611L34.115,22.528L34.104,22.445L34.092,22.363L34.078,22.281L34.064,22.199L34.049,22.118L34.033,22.037L34.016,21.957L33.998,21.876L33.979,21.797L33.96,21.718L33.939,21.639L33.917,21.56L33.894,21.482L33.871,21.405L33.846,21.327L33.82,21.25L33.794,21.174L33.767,21.098L33.738,21.022L33.709,20.947L33.679,20.872L33.648,20.798L33.617,20.724L33.584,20.651L33.55,20.577L33.516,20.505L33.48,20.433L33.444,20.361L33.407,20.29L33.369,20.219L33.33,20.149L33.291,20.079L33.25,20.009L33.209,19.941L33.167,19.872L33.124,19.805L33.08,19.737L33.036,19.67L32.99,19.604L32.944,19.539L32.897,19.473L32.85,19.409L32.801,19.345L32.752,19.281L32.702,19.219L32.651,19.156L32.6,19.095L32.548,19.034L32.495,18.973L32.441,18.914L32.387,18.855L32.332,18.796L32.276,18.738L32.219,18.681L32.162,18.625L32.104,18.569L32.046,18.514L31.987,18.46L31.927,18.406L31.867,18.353L31.806,18.301L31.744,18.249L31.682,18.198L31.619,18.148L31.556,18.099L31.492,18.051L31.427,18.003L31.362,17.956L31.296,17.91L31.23,17.865L31.163,17.82L31.096,17.776L31.028,17.734L30.96,17.691L30.891,17.65L30.822,17.61L30.752,17.57L30.682,17.531L30.611,17.493L30.54,17.456L30.468,17.42L30.396,17.385L30.323,17.35L30.25,17.317L30.177,17.284L30.103,17.252L30.028,17.221L29.953,17.191L29.878,17.162L29.803,17.134L29.726,17.106L29.65,17.08L29.573,17.055L29.496,17.03L29.418,17.006L29.34,16.984L29.262,16.962L29.183,16.941L29.104,16.921L29.024,16.902L28.944,16.884L28.864,16.867L28.783,16.851L28.701,16.836L28.62,16.822L28.538,16.809L28.455,16.797L28.372,16.786L28.289,16.776L28.205,16.767L28.121,16.759L28.037,16.752L27.952,16.746L27.866,16.741L27.78,16.737L27.694,16.734L27.607,16.733L27.52,16.732L27.433,16.733Z" style="fill:rgb(0,123,25);"/>
        </g>
    </g>
</svg>
