<?xml version="1.0" encoding="UTF-8" standalone="no"?>
<!DOCTYPE svg PUBLIC "-//W3C//DTD SVG 1.1//EN" "http://www.w3.org/Graphics/SVG/1.1/DTD/svg11.dtd">
<svg width="100%" height="100%" viewBox="0 0 100 100" version="1.1" xmlns="http://www.w3.org/2000/svg" xmlns:xlink="http://www.w3.org/1999/xlink" xml:space="preserve" xmlns:serif="http://www.serif.com/" style="fill-rule:evenodd;clip-rule:evenodd;stroke-linejoin:round;stroke-miterlimit:2;">
    <g transform="matrix(1,0,0,1,-8.15685,0.104114)">
        <path d="M61.013,10.656L61.266,10.658L61.519,10.662L61.771,10.668L62.023,10.675L62.275,10.684L62.526,10.694L62.777,10.706L63.028,10.72L63.278,10.735L63.527,10.751L63.776,10.77L64.025,10.789L64.274,10.811L64.521,10.833L64.769,10.858L65.016,10.884L65.262,10.911L65.508,10.94L65.754,10.971L65.999,11.003L66.244,11.036L66.488,11.071L66.732,11.108L66.975,11.145L67.218,11.185L67.46,11.226L67.702,11.268L67.943,11.312L68.184,11.358L68.424,11.405L68.663,11.453L68.902,11.503L69.141,11.554L69.379,11.606L69.617,11.661L69.854,11.716L70.09,11.773L70.326,11.832L70.561,11.891L70.796,11.953L71.03,12.015L71.264,12.079L71.497,12.145L71.729,12.212L71.961,12.28L72.192,12.349L72.423,12.42L72.653,12.493L72.882,12.567L73.111,12.642L73.339,12.718L73.567,12.796L73.794,12.875L74.02,12.956L74.246,13.038L74.471,13.121L74.695,13.206L74.919,13.291L75.142,13.379L75.364,13.467L75.586,13.557L75.807,13.648L76.027,13.741L76.247,13.835L76.466,13.93L76.684,14.026L76.902,14.124L77.119,14.223L77.335,14.323L77.551,14.424L77.765,14.527L77.979,14.631L78.193,14.736L78.405,14.843L78.617,14.951L78.828,15.06L79.039,15.17L79.248,15.281L79.457,15.394L79.665,15.508L79.873,15.623L80.079,15.74L80.285,15.857L80.49,15.976L80.694,16.096L80.898,16.217L81.101,16.339L81.302,16.463L81.503,16.588L81.704,16.714L81.903,16.841L82.102,16.969L82.3,17.098L82.497,17.229L82.693,17.361L82.888,17.493L83.082,17.627L83.276,17.763L83.469,17.899L83.661,18.036L83.852,18.175L84.042,18.314L84.231,18.455L84.42,18.597L84.607,18.74L84.794,18.884L84.98,19.029L85.165,19.175L85.349,19.323L85.532,19.471L85.714,19.62L85.895,19.771L86.076,19.923L86.255,20.075L86.433,20.229L86.611,20.384L86.788,20.539L86.963,20.696L87.138,20.854L87.312,21.013L87.485,21.173L87.656,21.334L87.827,21.496L87.997,21.659L88.166,21.823L88.334,21.988L88.501,22.154L88.667,22.321L88.832,22.489L88.996,22.658L89.159,22.828L89.321,22.999L89.482,23.17L89.642,23.343L89.801,23.517L89.959,23.692L90.116,23.867L90.271,24.044L90.426,24.222L90.58,24.4L90.732,24.579L90.884,24.76L91.035,24.941L91.184,25.123L91.332,25.306L91.48,25.49L91.626,25.675L91.771,25.861L91.915,26.048L92.058,26.235L92.2,26.424L92.341,26.613L92.48,26.803L92.619,26.994L92.756,27.186L92.892,27.379L93.028,27.573L93.162,27.767L93.294,27.962L93.426,28.158L93.557,28.355L93.686,28.553L93.814,28.752L93.941,28.951L94.067,29.152L94.192,29.353L94.316,29.555L94.438,29.757L94.559,29.961L94.679,30.165L94.798,30.37L94.915,30.576L95.032,30.782L95.147,30.99L95.261,31.198L95.374,31.407L95.485,31.616L95.595,31.827L95.704,32.038L95.812,32.25L95.919,32.462L96.024,32.676L96.128,32.89L96.231,33.104L96.332,33.32L96.432,33.536L96.531,33.753L96.629,33.971L96.725,34.189L96.82,34.408L96.914,34.628L97.007,34.848L97.098,35.069L97.188,35.291L97.276,35.513L97.364,35.736L97.449,35.96L97.534,36.184L97.617,36.409L97.699,36.635L97.78,36.861L97.859,37.088L97.937,37.316L98.013,37.544L98.088,37.773L98.162,38.002L98.235,38.232L98.306,38.463L98.375,38.694L98.443,38.926L98.51,39.158L98.576,39.391L98.64,39.625L98.702,39.859L98.764,40.094L98.824,40.329L98.882,40.565L98.939,40.801L98.994,41.038L99.049,41.276L99.101,41.514L99.152,41.753L99.202,41.992L99.25,42.231L99.297,42.471L99.343,42.712L99.387,42.953L99.429,43.195L99.47,43.437L99.51,43.68L99.548,43.923L99.584,44.167L99.619,44.411L99.652,44.656L99.684,44.901L99.715,45.147L99.744,45.393L99.771,45.639L99.797,45.886L99.822,46.134L99.844,46.381L99.866,46.63L99.885,46.879L99.904,47.128L99.92,47.377L99.935,47.627L99.949,47.878L99.961,48.129L99.971,48.38L99.98,48.632L99.987,48.884L99.993,49.136L99.997,49.389L99.999,49.642L100,49.896L99.999,50.149L99.997,50.403L99.993,50.656L99.987,50.908L99.98,51.16L99.971,51.412L99.961,51.663L99.949,51.914L99.935,52.164L99.92,52.414L99.904,52.664L99.885,52.913L99.866,53.162L99.844,53.41L99.822,53.658L99.797,53.906L99.771,54.153L99.744,54.399L99.715,54.645L99.684,54.891L99.652,55.136L99.619,55.381L99.584,55.625L99.548,55.869L99.51,56.112L99.47,56.354L99.429,56.597L99.387,56.838L99.343,57.08L99.297,57.32L99.25,57.56L99.202,57.8L99.152,58.039L99.101,58.278L99.049,58.516L98.994,58.753L98.939,58.99L98.882,59.227L98.824,59.463L98.764,59.698L98.702,59.933L98.64,60.167L98.576,60.4L98.51,60.633L98.443,60.866L98.375,61.098L98.306,61.329L98.235,61.56L98.162,61.79L98.088,62.019L98.013,62.248L97.937,62.476L97.859,62.704L97.78,62.93L97.699,63.157L97.617,63.382L97.534,63.607L97.449,63.832L97.364,64.055L97.276,64.279L97.188,64.501L97.098,64.723L97.007,64.944L96.914,65.164L96.82,65.384L96.725,65.603L96.629,65.821L96.531,66.039L96.432,66.256L96.332,66.472L96.231,66.687L96.128,66.902L96.024,67.116L95.919,67.329L95.812,67.542L95.704,67.754L95.595,67.965L95.485,68.175L95.374,68.385L95.261,68.594L95.147,68.802L95.032,69.009L94.915,69.216L94.798,69.422L94.679,69.627L94.559,69.831L94.438,70.035L94.316,70.237L94.192,70.439L94.067,70.64L93.941,70.84L93.814,71.04L93.686,71.239L93.557,71.436L93.426,71.633L93.294,71.829L93.162,72.025L93.028,72.219L92.892,72.413L92.756,72.606L92.619,72.798L92.48,72.989L92.341,73.179L92.2,73.368L92.058,73.557L91.915,73.744L91.771,73.931L91.626,74.117L91.48,74.301L91.332,74.485L91.184,74.669L91.035,74.851L90.884,75.032L90.732,75.212L90.58,75.392L90.426,75.57L90.271,75.748L90.116,75.924L89.959,76.1L89.801,76.275L89.642,76.449L89.482,76.621L89.321,76.793L89.159,76.964L88.996,77.134L88.832,77.303L88.667,77.471L88.501,77.638L88.334,77.804L88.166,77.969L87.997,78.133L87.827,78.296L87.656,78.458L87.485,78.619L87.312,78.779L87.138,78.938L86.963,79.095L86.788,79.252L86.611,79.408L86.433,79.563L86.255,79.717L86.076,79.869L85.895,80.021L85.714,80.171L85.532,80.321L85.349,80.469L85.165,80.617L84.98,80.763L84.794,80.908L84.607,81.052L84.42,81.195L84.231,81.337L84.042,81.477L83.852,81.617L83.661,81.756L83.469,81.893L83.276,82.029L83.082,82.164L82.888,82.298L82.693,82.431L82.497,82.563L82.3,82.693L82.102,82.823L81.903,82.951L81.704,83.078L81.503,83.204L81.302,83.329L81.101,83.452L80.898,83.575L80.694,83.696L80.49,83.816L80.285,83.935L80.079,84.052L79.873,84.169L79.665,84.284L79.457,84.398L79.248,84.51L79.039,84.622L78.828,84.732L78.617,84.841L78.405,84.949L78.193,85.055L77.979,85.161L77.765,85.265L77.551,85.367L77.335,85.469L77.119,85.569L76.902,85.668L76.684,85.766L76.466,85.862L76.247,85.957L76.027,86.051L75.807,86.143L75.586,86.235L75.364,86.324L75.142,86.413L74.919,86.5L74.695,86.586L74.471,86.671L74.246,86.754L74.02,86.836L73.794,86.916L73.567,86.996L73.339,87.074L73.111,87.15L72.882,87.225L72.653,87.299L72.423,87.371L72.192,87.442L71.961,87.512L71.729,87.58L71.497,87.647L71.264,87.713L71.03,87.777L70.796,87.839L70.561,87.9L70.326,87.96L70.09,88.019L69.854,88.076L69.617,88.131L69.379,88.185L69.141,88.238L68.902,88.289L68.663,88.339L68.424,88.387L68.184,88.434L67.943,88.479L67.702,88.523L67.46,88.566L67.218,88.607L66.975,88.646L66.732,88.684L66.488,88.721L66.244,88.756L65.999,88.789L65.754,88.821L65.508,88.852L65.262,88.881L65.016,88.908L64.769,88.934L64.521,88.958L64.274,88.981L64.025,89.002L63.776,89.022L63.527,89.04L63.278,89.057L63.028,89.072L62.777,89.086L62.526,89.098L62.275,89.108L62.023,89.117L61.771,89.124L61.519,89.13L61.266,89.134L61.013,89.136L60.759,89.137L60.506,89.136L60.252,89.134L59.999,89.13L59.747,89.124L59.495,89.117L59.243,89.108L58.992,89.098L58.741,89.086L58.491,89.072L58.241,89.057L57.991,89.04L57.742,89.022L57.493,89.002L57.245,88.981L56.997,88.958L56.749,88.934L56.502,88.908L56.256,88.881L56.01,88.852L55.764,88.821L55.519,88.789L55.274,88.756L55.03,88.721L54.786,88.684L54.543,88.646L54.301,88.607L54.058,88.566L53.817,88.523L53.575,88.479L53.335,88.434L53.095,88.387L52.855,88.339L52.616,88.289L52.377,88.238L52.139,88.185L51.902,88.131L51.665,88.076L51.428,88.019L51.192,87.96L50.957,87.9L50.722,87.839L50.488,87.777L50.255,87.713L50.022,87.647L49.789,87.58L49.557,87.512L49.326,87.442L49.095,87.371L48.865,87.299L48.636,87.225L48.407,87.15L48.179,87.074L47.951,86.996L47.725,86.916L47.498,86.836L47.273,86.754L47.048,86.671L46.823,86.586L46.6,86.5L46.376,86.413L46.154,86.324L45.932,86.235L45.711,86.143L45.491,86.051L45.271,85.957L45.052,85.862L44.834,85.766L44.616,85.668L44.399,85.569L44.183,85.469L43.968,85.367L43.753,85.265L43.539,85.161L43.326,85.055L43.113,84.949L42.901,84.841L42.69,84.732L42.48,84.622L42.27,84.51L42.061,84.398L41.853,84.284L41.646,84.169L41.439,84.052L41.233,83.935L41.028,83.816L40.824,83.696L40.62,83.575L40.418,83.452L40.216,83.329L40.015,83.204L39.815,83.078L39.615,82.951L39.416,82.823L39.219,82.693L39.022,82.563L38.826,82.431L38.63,82.298L38.436,82.164L38.242,82.029L38.049,81.893L37.857,81.756L37.666,81.617L37.476,81.477L37.287,81.337L37.098,81.195L36.911,81.052L36.724,80.908L36.538,80.763L36.354,80.617L36.17,80.469L35.986,80.321L35.804,80.171L35.623,80.021L35.443,79.869L35.263,79.717L35.085,79.563L34.907,79.408L34.731,79.252L34.555,79.095L34.38,78.938L34.206,78.779L34.034,78.619L33.862,78.458L33.691,78.296L33.521,78.133L33.352,77.969L33.184,77.804L33.017,77.638L32.851,77.471L32.686,77.303L32.522,77.134L32.359,76.964L32.197,76.793L32.036,76.621L31.876,76.449L31.717,76.275L31.56,76.1L31.403,75.924L31.247,75.748L31.092,75.57L30.938,75.392L30.786,75.212L30.634,75.032L30.484,74.851L30.334,74.669L30.186,74.485L30.039,74.301L29.892,74.117L29.747,73.931L29.603,73.744L29.46,73.557L29.318,73.368L29.178,73.179L29.038,72.989L28.899,72.798L28.762,72.606L28.626,72.413L28.491,72.219L28.357,72.025L28.224,71.829L28.092,71.633L27.962,71.436L27.832,71.239L27.704,71.04L27.577,70.84L27.451,70.64L27.326,70.439L27.203,70.237L27.08,70.035L26.959,69.831L26.839,69.627L26.72,69.422L26.603,69.216L26.486,69.009L26.371,68.802L26.257,68.594L26.145,68.385L26.033,68.175L25.923,67.965L25.814,67.754L25.706,67.542L25.6,67.329L25.494,67.116L25.39,66.902L25.288,66.687L25.186,66.472L25.086,66.256L24.987,66.039L24.889,65.821L24.793,65.603L24.698,65.384L24.604,65.164L24.512,64.944L24.42,64.723L24.331,64.501L24.242,64.279L24.155,64.055L24.069,63.832L23.984,63.607L23.901,63.382L23.819,63.157L23.739,62.93L23.659,62.704L23.581,62.476L23.505,62.248L23.43,62.019L23.356,61.79L23.284,61.56L23.213,61.329L23.143,61.098L23.075,60.866L23.008,60.633L22.943,60.4L22.878,60.167L22.816,59.933L22.755,59.698L22.695,59.463L22.636,59.227L22.579,58.99L22.524,58.753L22.47,58.516L22.417,58.278L22.366,58.039L22.316,57.8L22.268,57.56L22.221,57.32L22.176,57.08L22.132,56.838L22.089,56.597L22.048,56.354L22.009,56.112L21.971,55.869L21.934,55.625L21.899,55.381L21.866,55.136L21.834,54.891L21.803,54.645L21.774,54.399L21.747,54.153L21.721,53.906L21.697,53.658L21.674,53.41L21.653,53.162L21.633,52.913L21.615,52.664L21.598,52.414L21.583,52.164L21.569,51.914L21.557,51.663L21.547,51.412L21.538,51.16L21.531,50.908L21.525,50.656L21.521,50.403L21.519,50.149L21.518,49.896L21.519,49.642L21.521,49.389L21.525,49.136L21.531,48.884L21.538,48.632L21.547,48.38L21.557,48.129L21.569,47.878L21.583,47.627L21.598,47.377L21.615,47.128L21.633,46.879L21.653,46.63L21.674,46.381L21.697,46.134L21.721,45.886L21.747,45.639L21.774,45.393L21.803,45.147L21.834,44.901L21.866,44.656L21.899,44.411L21.934,44.167L21.971,43.923L22.009,43.68L22.048,43.437L22.089,43.195L22.132,42.953L22.176,42.712L22.221,42.471L22.268,42.231L22.316,41.992L22.366,41.753L22.417,41.514L22.47,41.276L22.524,41.038L22.579,40.801L22.636,40.565L22.695,40.329L22.755,40.094L22.816,39.859L22.878,39.625L22.943,39.391L23.008,39.158L23.075,38.926L23.143,38.694L23.213,38.463L23.284,38.232L23.356,38.002L23.43,37.773L23.505,37.544L23.581,37.316L23.659,37.088L23.739,36.861L23.819,36.635L23.901,36.409L23.984,36.184L24.069,35.96L24.155,35.736L24.242,35.513L24.331,35.291L24.42,35.069L24.512,34.848L24.604,34.628L24.698,34.408L24.793,34.189L24.889,33.971L24.987,33.753L25.086,33.536L25.186,33.32L25.288,33.104L25.39,32.89L25.494,32.676L25.6,32.462L25.706,32.25L25.814,32.038L25.923,31.827L26.033,31.616L26.145,31.407L26.257,31.198L26.371,30.99L26.486,30.782L26.603,30.576L26.72,30.37L26.839,30.165L26.959,29.961L27.08,29.757L27.203,29.555L27.326,29.353L27.451,29.152L27.577,28.951L27.704,28.752L27.832,28.553L27.962,28.355L28.092,28.158L28.224,27.962L28.357,27.767L28.491,27.573L28.626,27.379L28.762,27.186L28.899,26.994L29.038,26.803L29.178,26.613L29.318,26.424L29.46,26.235L29.603,26.048L29.747,25.861L29.892,25.675L30.039,25.49L30.186,25.306L30.334,25.123L30.484,24.941L30.634,24.76L30.786,24.579L30.938,24.4L31.092,24.222L31.247,24.044L31.403,23.867L31.56,23.692L31.717,23.517L31.876,23.343L32.036,23.17L32.197,22.999L32.359,22.828L32.522,22.658L32.686,22.489L32.851,22.321L33.017,22.154L33.184,21.988L33.352,21.823L33.521,21.659L33.691,21.496L33.862,21.334L34.034,21.173L34.206,21.013L34.38,20.854L34.555,20.696L34.731,20.539L34.907,20.384L35.085,20.229L35.263,20.075L35.443,19.923L35.623,19.771L35.804,19.62L35.986,19.471L36.17,19.323L36.354,19.175L36.538,19.029L36.724,18.884L36.911,18.74L37.098,18.597L37.287,18.455L37.476,18.314L37.666,18.175L37.857,18.036L38.049,17.899L38.242,17.763L38.436,17.627L38.63,17.493L38.826,17.361L39.022,17.229L39.219,17.098L39.416,16.969L39.615,16.841L39.815,16.714L40.015,16.588L40.216,16.463L40.418,16.339L40.62,16.217L40.824,16.096L41.028,15.976L41.233,15.857L41.439,15.74L41.646,15.623L41.853,15.508L42.061,15.394L42.27,15.281L42.48,15.17L42.69,15.06L42.901,14.951L43.113,14.843L43.326,14.736L43.539,14.631L43.753,14.527L43.968,14.424L44.183,14.323L44.399,14.223L44.616,14.124L44.834,14.026L45.052,13.93L45.271,13.835L45.491,13.741L45.711,13.648L45.932,13.557L46.154,13.467L46.376,13.379L46.6,13.291L46.823,13.206L47.048,13.121L47.273,13.038L47.498,12.956L47.725,12.875L47.951,12.796L48.179,12.718L48.407,12.642L48.636,12.567L48.865,12.493L49.095,12.42L49.326,12.349L49.557,12.28L49.789,12.212L50.022,12.145L50.255,12.079L50.488,12.015L50.722,11.953L50.957,11.891L51.192,11.832L51.428,11.773L51.665,11.716L51.902,11.661L52.139,11.606L52.377,11.554L52.616,11.503L52.855,11.453L53.095,11.405L53.335,11.358L53.575,11.312L53.817,11.268L54.058,11.226L54.301,11.185L54.543,11.145L54.786,11.108L55.03,11.071L55.274,11.036L55.519,11.003L55.764,10.971L56.01,10.94L56.256,10.911L56.502,10.884L56.749,10.858L56.997,10.833L57.245,10.811L57.493,10.789L57.742,10.77L57.991,10.751L58.241,10.735L58.491,10.72L58.741,10.706L58.992,10.694L59.243,10.684L59.495,10.675L59.747,10.668L59.999,10.662L60.252,10.658L60.506,10.656L60.759,10.655L61.013,10.656ZM60.579,22.237L60.399,22.239L60.22,22.242L60.041,22.246L59.862,22.251L59.684,22.257L59.506,22.264L59.328,22.273L59.151,22.282L58.974,22.293L58.798,22.305L58.622,22.317L58.446,22.331L58.271,22.346L58.096,22.363L57.921,22.38L57.747,22.398L57.573,22.417L57.399,22.438L57.226,22.459L57.054,22.482L56.881,22.505L56.709,22.53L56.538,22.556L56.367,22.582L56.196,22.61L56.025,22.639L55.855,22.669L55.686,22.7L55.516,22.732L55.348,22.765L55.179,22.799L55.011,22.834L54.843,22.87L54.676,22.907L54.509,22.945L54.343,22.984L54.177,23.024L54.011,23.065L53.846,23.107L53.681,23.15L53.516,23.194L53.352,23.239L53.188,23.285L53.025,23.332L52.862,23.38L52.7,23.429L52.538,23.478L52.376,23.529L52.215,23.581L52.055,23.634L51.894,23.688L51.734,23.742L51.575,23.798L51.416,23.855L51.257,23.912L51.099,23.971L50.942,24.03L50.784,24.09L50.628,24.152L50.471,24.214L50.316,24.277L50.16,24.341L50.005,24.406L49.851,24.472L49.697,24.539L49.543,24.607L49.39,24.675L49.238,24.745L49.086,24.816L48.934,24.887L48.783,24.959L48.632,25.032L48.482,25.107L48.332,25.181L48.183,25.257L48.035,25.334L47.886,25.412L47.739,25.49L47.592,25.57L47.445,25.65L47.299,25.731L47.153,25.813L47.008,25.896L46.864,25.98L46.72,26.064L46.576,26.15L46.434,26.236L46.291,26.323L46.149,26.411L46.008,26.5L45.868,26.589L45.727,26.68L45.588,26.771L45.449,26.863L45.311,26.956L45.173,27.05L45.035,27.144L44.899,27.24L44.763,27.336L44.627,27.433L44.492,27.531L44.358,27.629L44.224,27.729L44.091,27.829L43.959,27.93L43.827,28.032L43.696,28.134L43.565,28.238L43.435,28.342L43.306,28.447L43.177,28.552L43.049,28.659L42.921,28.766L42.794,28.874L42.668,28.982L42.543,29.092L42.418,29.202L42.294,29.313L42.17,29.424L42.047,29.537L41.925,29.65L41.804,29.763L41.683,29.878L41.563,29.993L41.443,30.109L41.324,30.226L41.206,30.343L41.089,30.461L40.972,30.58L40.856,30.699L40.741,30.82L40.627,30.94L40.513,31.062L40.4,31.184L40.287,31.307L40.176,31.43L40.065,31.555L39.955,31.679L39.845,31.805L39.737,31.931L39.629,32.058L39.522,32.185L39.415,32.314L39.31,32.442L39.205,32.572L39.101,32.702L38.998,32.832L38.895,32.963L38.793,33.095L38.692,33.228L38.592,33.361L38.493,33.495L38.394,33.629L38.296,33.764L38.199,33.899L38.103,34.035L38.008,34.172L37.913,34.309L37.819,34.447L37.726,34.586L37.634,34.725L37.543,34.864L37.453,35.004L37.363,35.145L37.274,35.286L37.186,35.428L37.099,35.57L37.013,35.713L36.927,35.857L36.843,36.001L36.759,36.145L36.676,36.29L36.594,36.436L36.513,36.582L36.433,36.728L36.353,36.876L36.275,37.023L36.197,37.171L36.121,37.32L36.045,37.469L35.97,37.619L35.896,37.769L35.822,37.92L35.75,38.071L35.679,38.222L35.608,38.374L35.539,38.527L35.47,38.68L35.402,38.834L35.335,38.988L35.269,39.142L35.204,39.297L35.14,39.452L35.077,39.608L35.015,39.764L34.954,39.921L34.893,40.078L34.834,40.236L34.775,40.394L34.718,40.553L34.661,40.712L34.606,40.871L34.551,41.031L34.497,41.191L34.444,41.352L34.393,41.513L34.342,41.675L34.292,41.837L34.243,41.999L34.195,42.162L34.148,42.325L34.102,42.489L34.057,42.653L34.013,42.817L33.97,42.982L33.928,43.148L33.887,43.313L33.847,43.479L33.808,43.646L33.77,43.813L33.733,43.98L33.697,44.148L33.662,44.316L33.628,44.484L33.595,44.653L33.563,44.822L33.532,44.992L33.502,45.162L33.474,45.333L33.446,45.503L33.419,45.675L33.393,45.846L33.369,46.018L33.345,46.19L33.323,46.363L33.301,46.536L33.281,46.71L33.261,46.884L33.243,47.058L33.226,47.232L33.21,47.407L33.195,47.583L33.181,47.758L33.168,47.934L33.156,48.111L33.145,48.288L33.136,48.465L33.127,48.643L33.12,48.82L33.114,48.999L33.109,49.177L33.105,49.357L33.102,49.536L33.1,49.716L33.1,49.896L33.1,50.076L33.102,50.256L33.105,50.435L33.109,50.614L33.114,50.793L33.12,50.971L33.127,51.149L33.136,51.327L33.145,51.504L33.156,51.681L33.168,51.857L33.181,52.033L33.195,52.209L33.21,52.384L33.226,52.559L33.243,52.734L33.261,52.908L33.281,53.082L33.301,53.256L33.323,53.429L33.345,53.601L33.369,53.774L33.393,53.946L33.419,54.117L33.446,54.288L33.474,54.459L33.502,54.63L33.532,54.8L33.563,54.969L33.595,55.139L33.628,55.307L33.662,55.476L33.697,55.644L33.733,55.812L33.77,55.979L33.808,56.146L33.847,56.312L33.887,56.478L33.928,56.644L33.97,56.809L34.013,56.974L34.057,57.139L34.102,57.303L34.148,57.467L34.195,57.63L34.243,57.793L34.292,57.955L34.342,58.117L34.393,58.279L34.444,58.44L34.497,58.6L34.551,58.761L34.606,58.921L34.661,59.08L34.718,59.239L34.775,59.398L34.834,59.556L34.893,59.713L34.954,59.871L35.015,60.027L35.077,60.184L35.14,60.339L35.204,60.495L35.269,60.65L35.335,60.804L35.402,60.958L35.47,61.112L35.539,61.265L35.608,61.417L35.679,61.57L35.75,61.721L35.822,61.872L35.896,62.023L35.97,62.173L36.045,62.323L36.121,62.472L36.197,62.62L36.275,62.769L36.354,62.916L36.433,63.063L36.513,63.21L36.594,63.356L36.676,63.502L36.759,63.647L36.843,63.791L36.927,63.935L37.013,64.078L37.099,64.221L37.186,64.364L37.274,64.506L37.363,64.647L37.453,64.787L37.543,64.928L37.634,65.067L37.726,65.206L37.819,65.345L37.913,65.482L38.008,65.62L38.103,65.756L38.199,65.892L38.296,66.028L38.394,66.163L38.493,66.297L38.592,66.431L38.692,66.564L38.793,66.696L38.895,66.828L38.998,66.96L39.101,67.09L39.205,67.22L39.31,67.35L39.415,67.478L39.522,67.606L39.629,67.734L39.737,67.861L39.846,67.987L39.955,68.112L40.065,68.237L40.176,68.361L40.287,68.485L40.4,68.608L40.513,68.73L40.627,68.852L40.741,68.972L40.856,69.092L40.972,69.212L41.089,69.331L41.206,69.449L41.324,69.566L41.443,69.683L41.563,69.799L41.683,69.914L41.804,70.028L41.925,70.142L42.047,70.255L42.17,70.368L42.294,70.479L42.418,70.59L42.543,70.7L42.668,70.81L42.794,70.918L42.921,71.026L43.049,71.133L43.177,71.24L43.305,71.345L43.435,71.45L43.565,71.554L43.696,71.657L43.827,71.76L43.959,71.862L44.091,71.963L44.224,72.063L44.358,72.162L44.492,72.261L44.627,72.359L44.763,72.456L44.899,72.552L45.035,72.647L45.173,72.742L45.31,72.836L45.449,72.929L45.588,73.021L45.727,73.112L45.868,73.202L46.008,73.292L46.149,73.381L46.291,73.469L46.434,73.556L46.577,73.642L46.72,73.728L46.864,73.812L47.008,73.896L47.153,73.979L47.299,74.061L47.445,74.142L47.592,74.222L47.739,74.302L47.886,74.38L48.035,74.458L48.183,74.534L48.332,74.61L48.482,74.685L48.632,74.759L48.783,74.833L48.934,74.905L49.086,74.976L49.238,75.047L49.39,75.116L49.543,75.185L49.697,75.253L49.851,75.32L50.005,75.386L50.16,75.451L50.316,75.515L50.471,75.578L50.628,75.64L50.784,75.701L50.942,75.762L51.099,75.821L51.258,75.88L51.416,75.937L51.575,75.994L51.734,76.049L51.894,76.104L52.054,76.158L52.215,76.211L52.377,76.263L52.538,76.313L52.7,76.363L52.862,76.412L53.025,76.46L53.188,76.507L53.352,76.553L53.516,76.598L53.681,76.642L53.846,76.685L54.011,76.727L54.176,76.768L54.343,76.808L54.509,76.847L54.676,76.885L54.843,76.922L55.011,76.958L55.179,76.993L55.348,77.027L55.516,77.06L55.686,77.092L55.855,77.123L56.025,77.153L56.196,77.182L56.367,77.209L56.538,77.236L56.709,77.262L56.881,77.286L57.054,77.31L57.226,77.332L57.4,77.354L57.573,77.374L57.747,77.394L57.921,77.412L58.096,77.429L58.27,77.445L58.446,77.46L58.622,77.474L58.798,77.487L58.974,77.499L59.151,77.51L59.328,77.519L59.506,77.528L59.684,77.535L59.862,77.541L60.041,77.546L60.22,77.55L60.399,77.553L60.579,77.555L60.759,77.555L60.939,77.555L61.119,77.553L61.298,77.55L61.478,77.546L61.656,77.541L61.834,77.535L62.012,77.528L62.19,77.519L62.367,77.51L62.544,77.499L62.721,77.487L62.897,77.474L63.072,77.46L63.248,77.445L63.423,77.429L63.597,77.412L63.771,77.394L63.945,77.374L64.119,77.354L64.292,77.332L64.465,77.31L64.637,77.286L64.809,77.262L64.98,77.236L65.152,77.209L65.322,77.182L65.493,77.153L65.663,77.123L65.833,77.092L66.002,77.06L66.171,77.027L66.339,76.993L66.507,76.958L66.675,76.922L66.842,76.885L67.009,76.847L67.176,76.808L67.342,76.768L67.507,76.727L67.673,76.685L67.838,76.642L68.002,76.598L68.166,76.553L68.33,76.507L68.493,76.46L68.656,76.412L68.818,76.363L68.98,76.313L69.142,76.263L69.303,76.211L69.464,76.158L69.624,76.104L69.784,76.049L69.943,75.994L70.102,75.937L70.261,75.88L70.419,75.821L70.577,75.762L70.734,75.701L70.891,75.64L71.047,75.578L71.203,75.515L71.358,75.451L71.513,75.386L71.667,75.32L71.822,75.253L71.975,75.185L72.128,75.116L72.281,75.047L72.433,74.976L72.584,74.905L72.736,74.833L72.886,74.759L73.036,74.685L73.186,74.61L73.335,74.534L73.484,74.458L73.632,74.38L73.78,74.301L73.927,74.222L74.073,74.142L74.219,74.061L74.365,73.979L74.51,73.896L74.654,73.812L74.798,73.728L74.942,73.642L75.085,73.556L75.227,73.469L75.369,73.381L75.51,73.292L75.651,73.202L75.791,73.112L75.93,73.021L76.069,72.929L76.208,72.836L76.346,72.742L76.483,72.647L76.62,72.552L76.756,72.456L76.891,72.359L77.026,72.261L77.16,72.162L77.294,72.063L77.427,71.963L77.56,71.862L77.692,71.76L77.823,71.658L77.953,71.554L78.083,71.45L78.213,71.345L78.342,71.24L78.47,71.133L78.597,71.026L78.724,70.918L78.85,70.81L78.976,70.7L79.1,70.59L79.225,70.479L79.348,70.368L79.471,70.255L79.593,70.142L79.715,70.028L79.836,69.914L79.956,69.799L80.075,69.683L80.194,69.566L80.312,69.449L80.429,69.331L80.546,69.212L80.662,69.092L80.777,68.972L80.891,68.852L81.005,68.73L81.118,68.608L81.231,68.485L81.342,68.361L81.453,68.237L81.563,68.112L81.673,67.987L81.781,67.861L81.889,67.734L81.996,67.606L82.103,67.478L82.208,67.35L82.313,67.22L82.417,67.09L82.521,66.96L82.623,66.828L82.725,66.696L82.826,66.564L82.926,66.431L83.026,66.297L83.124,66.163L83.222,66.028L83.319,65.892L83.415,65.756L83.511,65.62L83.605,65.482L83.699,65.345L83.792,65.206L83.884,65.067L83.975,64.927L84.066,64.788L84.155,64.647L84.244,64.505L84.332,64.364L84.419,64.221L84.505,64.079L84.591,63.935L84.675,63.791L84.759,63.647L84.842,63.502L84.924,63.356L85.005,63.21L85.085,63.063L85.165,62.916L85.243,62.769L85.321,62.621L85.398,62.472L85.474,62.323L85.549,62.173L85.623,62.023L85.696,61.872L85.768,61.721L85.839,61.57L85.91,61.417L85.98,61.265L86.048,61.112L86.116,60.958L86.183,60.804L86.249,60.65L86.314,60.495L86.378,60.339L86.441,60.184L86.503,60.027L86.565,59.87L86.625,59.713L86.684,59.556L86.743,59.398L86.8,59.239L86.857,59.08L86.913,58.921L86.967,58.761L87.021,58.601L87.074,58.44L87.126,58.279L87.177,58.117L87.226,57.955L87.275,57.793L87.323,57.63L87.37,57.467L87.416,57.303L87.461,57.139L87.505,56.974L87.548,56.81L87.59,56.644L87.631,56.478L87.671,56.312L87.71,56.146L87.748,55.979L87.785,55.812L87.821,55.644L87.856,55.476L87.89,55.308L87.923,55.139L87.955,54.969L87.986,54.8L88.016,54.63L88.045,54.459L88.073,54.289L88.099,54.117L88.125,53.946L88.15,53.774L88.173,53.601L88.196,53.429L88.217,53.256L88.238,53.082L88.257,52.908L88.275,52.734L88.292,52.559L88.309,52.385L88.324,52.209L88.338,52.033L88.35,51.857L88.362,51.681L88.373,51.504L88.382,51.327L88.391,51.149L88.398,50.971L88.404,50.793L88.409,50.614L88.413,50.435L88.416,50.256L88.418,50.076L88.419,49.896L88.418,49.716L88.416,49.536L88.413,49.356L88.409,49.177L88.404,48.999L88.398,48.82L88.391,48.642L88.382,48.465L88.373,48.288L88.362,48.111L88.35,47.935L88.338,47.758L88.324,47.583L88.309,47.407L88.292,47.232L88.275,47.058L88.257,46.884L88.238,46.71L88.217,46.536L88.196,46.363L88.173,46.191L88.15,46.018L88.125,45.846L88.099,45.674L88.073,45.503L88.045,45.333L88.016,45.162L87.986,44.992L87.955,44.822L87.923,44.653L87.89,44.484L87.856,44.316L87.821,44.148L87.785,43.98L87.748,43.813L87.71,43.646L87.671,43.479L87.631,43.313L87.59,43.148L87.548,42.982L87.505,42.817L87.461,42.653L87.416,42.489L87.37,42.325L87.323,42.162L87.275,41.999L87.226,41.837L87.177,41.675L87.126,41.513L87.074,41.352L87.021,41.191L86.967,41.031L86.913,40.871L86.857,40.712L86.8,40.553L86.743,40.394L86.684,40.236L86.625,40.078L86.565,39.921L86.503,39.764L86.441,39.608L86.378,39.452L86.314,39.297L86.249,39.142L86.183,38.987L86.116,38.833L86.048,38.68L85.98,38.527L85.91,38.374L85.839,38.222L85.768,38.071L85.696,37.92L85.623,37.769L85.549,37.619L85.474,37.469L85.398,37.32L85.321,37.171L85.243,37.023L85.165,36.876L85.085,36.728L85.005,36.582L84.924,36.436L84.842,36.29L84.759,36.145L84.675,36.001L84.591,35.857L84.505,35.713L84.419,35.57L84.332,35.428L84.244,35.286L84.155,35.145L84.066,35.004L83.975,34.864L83.884,34.725L83.792,34.586L83.699,34.447L83.605,34.309L83.511,34.172L83.415,34.035L83.319,33.899L83.222,33.764L83.124,33.629L83.026,33.495L82.926,33.361L82.826,33.228L82.725,33.095L82.623,32.964L82.521,32.832L82.417,32.702L82.313,32.572L82.208,32.442L82.103,32.314L81.996,32.185L81.889,32.058L81.781,31.931L81.673,31.805L81.563,31.68L81.453,31.555L81.342,31.43L81.231,31.307L81.118,31.184L81.005,31.062L80.892,30.94L80.777,30.82L80.662,30.699L80.546,30.58L80.429,30.461L80.312,30.343L80.194,30.226L80.075,30.109L79.956,29.993L79.835,29.878L79.715,29.763L79.593,29.65L79.471,29.537L79.348,29.424L79.225,29.313L79.1,29.202L78.976,29.092L78.85,28.982L78.724,28.874L78.597,28.766L78.47,28.659L78.341,28.552L78.213,28.447L78.083,28.342L77.953,28.238L77.823,28.134L77.691,28.032L77.56,27.93L77.427,27.829L77.294,27.729L77.16,27.629L77.026,27.531L76.891,27.433L76.756,27.336L76.62,27.24L76.483,27.145L76.346,27.05L76.208,26.956L76.069,26.863L75.93,26.771L75.791,26.68L75.651,26.589L75.51,26.5L75.369,26.411L75.227,26.323L75.085,26.236L74.942,26.15L74.798,26.064L74.654,25.98L74.51,25.896L74.365,25.813L74.219,25.731L74.073,25.65L73.927,25.57L73.78,25.49L73.632,25.412L73.484,25.334L73.335,25.257L73.186,25.181L73.036,25.106L72.886,25.032L72.736,24.959L72.584,24.887L72.433,24.816L72.281,24.745L72.128,24.675L71.975,24.607L71.822,24.539L71.668,24.472L71.513,24.406L71.358,24.341L71.203,24.277L71.047,24.214L70.891,24.152L70.734,24.09L70.577,24.03L70.419,23.971L70.261,23.912L70.102,23.855L69.943,23.798L69.784,23.742L69.624,23.688L69.464,23.634L69.303,23.581L69.142,23.529L68.98,23.478L68.818,23.429L68.656,23.38L68.493,23.332L68.33,23.285L68.166,23.239L68.002,23.194L67.838,23.15L67.673,23.107L67.507,23.065L67.342,23.024L67.176,22.984L67.009,22.945L66.842,22.907L66.675,22.87L66.507,22.834L66.339,22.799L66.171,22.765L66.002,22.732L65.833,22.7L65.663,22.669L65.493,22.639L65.322,22.61L65.152,22.582L64.98,22.556L64.809,22.53L64.637,22.505L64.465,22.482L64.292,22.459L64.119,22.438L63.945,22.417L63.771,22.398L63.597,22.38L63.423,22.363L63.248,22.346L63.072,22.331L62.897,22.317L62.721,22.305L62.544,22.293L62.367,22.282L62.19,22.273L62.012,22.264L61.835,22.257L61.656,22.251L61.478,22.246L61.299,22.242L61.119,22.239L60.939,22.237L60.759,22.236L60.579,22.237Z" style="fill:rgb(82,69,255);"/>
    </g>
</svg>
